<svg xmlns="http://www.w3.org/2000/svg" width="220" height="281.5" viewBox="0 0 220 281.5">
  <defs>
    <style>
      .cls-1 {
        fill: none;
        stroke: blue;
      }

      .cls-1, .cls-2, .cls-3, .cls-4, .cls-5 {
        stroke-miterlimit: 10;
      }

      .cls-2 {
        fill: #666;
      }

      .cls-2, .cls-3, .cls-4, .cls-5 {
        stroke: #000;
      }

      .cls-3 {
        fill: #999;
      }

      .cls-4 {
        fill: #ccc;
      }

      .cls-5 {
        fill: #f2f2f2;
      }

      .cls-6 {
        font-size: 11px;
        font-family: ArialMT, Arial;
      }

      .cls-7 {
        fill: blue;
      }
    </style>
  </defs>
  <g id="_125_x_15" data-name="125 x 15" transform="translate(0 0.495)">
    <g id="Group_134" data-name="Group 134" transform="translate(45.001 -36.495)">
      <line id="Line_3" data-name="Line 3" class="cls-1" y1="15" transform="translate(138 290.5)"/>
      <line id="Line_4" data-name="Line 4" class="cls-1" y1="15" transform="translate(108 290.5)"/>
    </g>
    <rect id="Rectangle_682" data-name="Rectangle 682" class="cls-2" width="30" height="15" transform="translate(153.001 239.005)"/>
    <rect id="Rectangle_683" data-name="Rectangle 683" class="cls-2" width="30" height="15" transform="translate(153.001 224.005)"/>
    <rect id="Rectangle_684" data-name="Rectangle 684" class="cls-2" width="30" height="15" transform="translate(153.001 209.005)"/>
    <rect id="Rectangle_685" data-name="Rectangle 685" class="cls-3" width="30" height="20" transform="translate(153.001 189.005)"/>
    <rect id="Rectangle_686" data-name="Rectangle 686" class="cls-4" width="30" height="30" transform="translate(153.001 159.005)"/>
    <rect id="Rectangle_687" data-name="Rectangle 687" class="cls-4" width="30" height="30" transform="translate(153.001 129.005)"/>
    <rect id="Rectangle_688" data-name="Rectangle 688" class="cls-5" width="30" height="43" transform="translate(153.001 86.005)"/>
    <rect id="Rectangle_689" data-name="Rectangle 689" class="cls-5" width="30" height="43" transform="translate(153.001 43.005)"/>
    <rect id="Rectangle_690" data-name="Rectangle 690" class="cls-2" width="30" height="15" transform="translate(123.001 239.005)"/>
    <rect id="Rectangle_691" data-name="Rectangle 691" class="cls-2" width="30" height="15" transform="translate(123.001 224.005)"/>
    <rect id="Rectangle_692" data-name="Rectangle 692" class="cls-2" width="30" height="15" transform="translate(123.001 209.005)"/>
    <rect id="Rectangle_693" data-name="Rectangle 693" class="cls-3" width="30" height="20" transform="translate(123.001 189.005)"/>
    <rect id="Rectangle_694" data-name="Rectangle 694" class="cls-4" width="30" height="30" transform="translate(123.001 159.005)"/>
    <rect id="Rectangle_695" data-name="Rectangle 695" class="cls-4" width="30" height="30" transform="translate(123.001 129.005)"/>
    <rect id="Rectangle_696" data-name="Rectangle 696" class="cls-5" width="30" height="43" transform="translate(123.001 86.005)"/>
    <rect id="Rectangle_697" data-name="Rectangle 697" class="cls-5" width="30" height="43" transform="translate(123.001 43.005)"/>
    <rect id="Rectangle_698" data-name="Rectangle 698" class="cls-2" width="30" height="15" transform="translate(93.001 239.005)"/>
    <rect id="Rectangle_699" data-name="Rectangle 699" class="cls-2" width="30" height="15" transform="translate(93.001 224.005)"/>
    <rect id="Rectangle_700" data-name="Rectangle 700" class="cls-2" width="30" height="15" transform="translate(93.001 209.005)"/>
    <rect id="Rectangle_701" data-name="Rectangle 701" class="cls-3" width="30" height="20" transform="translate(93.001 189.005)"/>
    <rect id="Rectangle_702" data-name="Rectangle 702" class="cls-4" width="30" height="30" transform="translate(93.001 159.005)"/>
    <rect id="Rectangle_703" data-name="Rectangle 703" class="cls-4" width="30" height="30" transform="translate(93.001 129.005)"/>
    <rect id="Rectangle_704" data-name="Rectangle 704" class="cls-5" width="30" height="43" transform="translate(93.001 86.005)"/>
    <rect id="Rectangle_705" data-name="Rectangle 705" class="cls-5" width="30" height="43" transform="translate(93.001 43.005)"/>
    <text id="_15" data-name="15" class="cls-6" transform="translate(161.844 279.005)"><tspan x="0" y="0">15</tspan></text>
    <g id="Group_135" data-name="Group 135" transform="translate(45.001 -36.495)">
      <line id="Line_7" data-name="Line 7" class="cls-1" x2="28.2" transform="translate(108.9 298)"/>
      <g id="Group_4" data-name="Group 4">
        <path id="Path_1" data-name="Path 1" class="cls-7" d="M114.03,301.6a.376.376,0,0,0-.12-.52L109.07,298l4.84-3.08a.373.373,0,1,0-.4-.63l-5.34,3.4a.373.373,0,0,0-.17.32.4.4,0,0,0,.17.32l5.34,3.4a.36.36,0,0,0,.2.06A.468.468,0,0,0,114.03,301.6Z"/>
      </g>
      <g id="Group_5" data-name="Group 5">
        <path id="Path_2" data-name="Path 2" class="cls-7" d="M131.97,301.6a.376.376,0,0,1,.12-.52l4.84-3.08-4.84-3.08a.373.373,0,1,1,.4-.63l5.34,3.4a.373.373,0,0,1,.17.32.4.4,0,0,1-.17.32l-5.34,3.4a.361.361,0,0,1-.2.06A.468.468,0,0,1,131.97,301.6Z"/>
      </g>
    </g>
    <rect id="Rectangle_706" data-name="Rectangle 706" class="cls-2" width="30" height="15" transform="translate(63.001 239.005)"/>
    <rect id="Rectangle_707" data-name="Rectangle 707" class="cls-2" width="30" height="15" transform="translate(63.001 224.005)"/>
    <rect id="Rectangle_708" data-name="Rectangle 708" class="cls-2" width="30" height="15" transform="translate(63.001 209.005)"/>
    <rect id="Rectangle_709" data-name="Rectangle 709" class="cls-3" width="30" height="20" transform="translate(63.001 189.005)"/>
    <rect id="Rectangle_710" data-name="Rectangle 710" class="cls-4" width="30" height="30" transform="translate(63.001 159.005)"/>
    <rect id="Rectangle_711" data-name="Rectangle 711" class="cls-4" width="30" height="30" transform="translate(63.001 129.005)"/>
    <rect id="Rectangle_712" data-name="Rectangle 712" class="cls-5" width="30" height="43" transform="translate(63.001 86.005)"/>
    <rect id="Rectangle_713" data-name="Rectangle 713" class="cls-5" width="30" height="43" transform="translate(63.001 43.005)"/>
    <rect id="Rectangle_714" data-name="Rectangle 714" class="cls-2" width="30" height="15" transform="translate(33.001 239.005)"/>
    <rect id="Rectangle_715" data-name="Rectangle 715" class="cls-2" width="30" height="15" transform="translate(33.001 224.005)"/>
    <rect id="Rectangle_716" data-name="Rectangle 716" class="cls-2" width="30" height="15" transform="translate(33.001 209.005)"/>
    <rect id="Rectangle_717" data-name="Rectangle 717" class="cls-3" width="30" height="20" transform="translate(33.001 189.005)"/>
    <rect id="Rectangle_718" data-name="Rectangle 718" class="cls-4" width="30" height="30" transform="translate(33.001 159.005)"/>
    <rect id="Rectangle_719" data-name="Rectangle 719" class="cls-4" width="30" height="30" transform="translate(33.001 129.005)"/>
    <rect id="Rectangle_720" data-name="Rectangle 720" class="cls-5" width="30" height="43" transform="translate(33.001 86.005)"/>
    <rect id="Rectangle_721" data-name="Rectangle 721" class="cls-5" width="30" height="43" transform="translate(33.001 43.005)"/>
    <line id="Line_145" data-name="Line 145" class="cls-1" x2="15" transform="translate(183.001 239.01)"/>
    <line id="Line_146" data-name="Line 146" class="cls-1" x1="15" transform="translate(183.001 254.01)"/>
    <line id="Line_147" data-name="Line 147" class="cls-1" x2="15" transform="translate(183.001 189.01)"/>
    <line id="Line_148" data-name="Line 148" class="cls-1" x1="15" transform="translate(183.001 209.01)"/>
    <line id="Line_149" data-name="Line 149" class="cls-1" x2="15" transform="translate(183.001 159.01)"/>
    <line id="Line_150" data-name="Line 150" class="cls-1" x1="15" transform="translate(183.001 129.01)"/>
    <line id="Line_151" data-name="Line 151" class="cls-1" x2="15" transform="translate(183.001 86.01)"/>
    <text id="_7.5" data-name="7.5" class="cls-6" transform="translate(198 252.006)"><tspan x="0" y="0">7.5</tspan></text>
    <text id="_10" data-name="10" class="cls-6" transform="translate(198 207.006)"><tspan x="0" y="0">10</tspan></text>
    <text id="_15-2" data-name="15" class="cls-6" transform="translate(198 187.006)"><tspan x="0" y="0">15</tspan></text>
    <text id="_21.5" data-name="21.5" class="cls-6" transform="translate(198 127.006)"><tspan x="0" y="0">21.5</tspan></text>
    <line id="Line_152" data-name="Line 152" class="cls-1" y2="41.19" transform="translate(190.501 86.91)"/>
    <g id="Group_136" data-name="Group 136" transform="translate(23.021 -190.62)">
      <path id="Path_15" data-name="Path 15" class="cls-7" d="M163.88,282.65a.376.376,0,0,0,.52-.12l3.08-4.84,3.08,4.84a.373.373,0,1,0,.63-.4l-3.4-5.34a.373.373,0,0,0-.32-.17.4.4,0,0,0-.32.17l-3.4,5.34a.361.361,0,0,0-.06.2A.448.448,0,0,0,163.88,282.65Z"/>
    </g>
    <g id="Group_137" data-name="Group 137" transform="translate(23.021 -190.62)">
      <path id="Path_16" data-name="Path 16" class="cls-7" d="M163.88,313.6a.376.376,0,0,1,.52.12l3.08,4.84,3.08-4.84a.373.373,0,1,1,.63.4l-3.4,5.34a.373.373,0,0,1-.32.17.4.4,0,0,1-.32-.17l-3.4-5.34a.361.361,0,0,1-.06-.2A.448.448,0,0,1,163.88,313.6Z"/>
    </g>
    <line id="Line_153" data-name="Line 153" class="cls-1" y2="28.19" transform="translate(190.501 159.91)"/>
    <g id="Group_138" data-name="Group 138" transform="translate(23.021 -190.62)">
      <path id="Path_17" data-name="Path 17" class="cls-7" d="M163.88,355.65a.376.376,0,0,0,.52-.12l3.08-4.84,3.08,4.84a.373.373,0,1,0,.63-.4l-3.4-5.34a.373.373,0,0,0-.32-.17.4.4,0,0,0-.32.17l-3.4,5.34a.361.361,0,0,0-.06.2A.448.448,0,0,0,163.88,355.65Z"/>
    </g>
    <g id="Group_139" data-name="Group 139" transform="translate(23.021 -190.62)">
      <path id="Path_18" data-name="Path 18" class="cls-7" d="M163.88,373.6a.376.376,0,0,1,.52.12l3.08,4.84,3.08-4.84a.373.373,0,1,1,.63.4l-3.4,5.34a.373.373,0,0,1-.32.17.4.4,0,0,1-.32-.17l-3.4-5.34a.361.361,0,0,1-.06-.2A.448.448,0,0,1,163.88,373.6Z"/>
    </g>
    <line id="Line_154" data-name="Line 154" class="cls-1" y1="18.19" transform="translate(190.501 189.91)"/>
    <g id="Group_140" data-name="Group 140" transform="translate(23.021 -190.62)">
      <path id="Path_19" data-name="Path 19" class="cls-7" d="M171.08,393.6a.376.376,0,0,0-.52.12l-3.08,4.84-3.08-4.84a.373.373,0,1,0-.63.4l3.4,5.34a.373.373,0,0,0,.32.17.4.4,0,0,0,.32-.17l3.4-5.34a.361.361,0,0,0,.06-.2A.448.448,0,0,0,171.08,393.6Z"/>
    </g>
    <g id="Group_141" data-name="Group 141" transform="translate(23.021 -190.62)">
      <path id="Path_20" data-name="Path 20" class="cls-7" d="M171.08,385.65a.376.376,0,0,1-.52-.12l-3.08-4.84-3.08,4.84a.373.373,0,1,1-.63-.4l3.4-5.34a.373.373,0,0,1,.32-.17.4.4,0,0,1,.32.17l3.4,5.34a.361.361,0,0,1,.06.2A.448.448,0,0,1,171.08,385.65Z"/>
    </g>
    <line id="Line_155" data-name="Line 155" class="cls-1" y2="13.19" transform="translate(190.501 239.91)"/>
    <g id="Group_142" data-name="Group 142" transform="translate(23.021 -190.62)">
      <path id="Path_21" data-name="Path 21" class="cls-7" d="M163.88,435.65a.376.376,0,0,0,.52-.12l3.08-4.84,3.08,4.84a.373.373,0,1,0,.63-.4l-3.4-5.34a.373.373,0,0,0-.32-.17.4.4,0,0,0-.32.17l-3.4,5.34a.361.361,0,0,0-.06.2A.448.448,0,0,0,163.88,435.65Z"/>
    </g>
    <g id="Group_143" data-name="Group 143" transform="translate(23.021 -190.62)">
      <path id="Path_22" data-name="Path 22" class="cls-7" d="M163.88,438.6a.376.376,0,0,1,.52.12l3.08,4.84,3.08-4.84a.373.373,0,1,1,.63.4l-3.4,5.34a.373.373,0,0,1-.32.17.4.4,0,0,1-.32-.17l-3.4-5.34a.361.361,0,0,1-.06-.2A.448.448,0,0,1,163.88,438.6Z"/>
    </g>
    <rect id="Rectangle_722" data-name="Rectangle 722" class="cls-5" width="30" height="43" transform="translate(153.001 0.005)"/>
    <rect id="Rectangle_723" data-name="Rectangle 723" class="cls-5" width="30" height="43" transform="translate(123.001 0.005)"/>
    <rect id="Rectangle_724" data-name="Rectangle 724" class="cls-5" width="30" height="43" transform="translate(93.001 0.005)"/>
    <rect id="Rectangle_725" data-name="Rectangle 725" class="cls-5" width="30" height="43" transform="translate(63.001 0.005)"/>
    <rect id="Rectangle_726" data-name="Rectangle 726" class="cls-5" width="30" height="43" transform="translate(33.001 0.005)"/>
    <line id="Line_171" data-name="Line 171" class="cls-1" x1="15" transform="translate(18.001 254.01)"/>
    <line id="Line_172" data-name="Line 172" class="cls-1" x2="15" transform="translate(18.001 0.01)"/>
    <line id="Line_173" data-name="Line 173" class="cls-1" y2="253.595" transform="translate(25.501 0.91)"/>
    <g id="Group_154" data-name="Group 154" transform="translate(-141.979 -276.62)">
      <path id="Path_15-2" data-name="Path 15" class="cls-7" d="M163.88,282.65a.376.376,0,0,0,.52-.12l3.08-4.84,3.08,4.84a.373.373,0,1,0,.63-.4l-3.4-5.34a.373.373,0,0,0-.32-.17.4.4,0,0,0-.32.17l-3.4,5.34a.361.361,0,0,0-.06.2A.448.448,0,0,0,163.88,282.65Z"/>
    </g>
    <g id="Group_155" data-name="Group 155" transform="translate(-141.979 -65.62)">
      <path id="Path_16-2" data-name="Path 16" class="cls-7" d="M163.88,313.6a.376.376,0,0,1,.52.12l3.08,4.84,3.08-4.84a.373.373,0,1,1,.63.4l-3.4,5.34a.373.373,0,0,1-.32.17.4.4,0,0,1-.32-.17l-3.4-5.34a.361.361,0,0,1-.06-.2A.448.448,0,0,1,163.88,313.6Z"/>
    </g>
    <text id="_125" data-name="125" class="cls-6" transform="translate(0 132.006)"><tspan x="0" y="0">125</tspan></text>
  </g>
</svg>
