<svg xmlns="http://www.w3.org/2000/svg" width="205" height="281.495" viewBox="0 0 205 281.495">
  <defs>
    <style>
      .cls-1 {
        fill: #666;
      }

      .cls-1, .cls-2, .cls-3, .cls-4 {
        stroke: #000;
      }

      .cls-1, .cls-2, .cls-3, .cls-4, .cls-5 {
        stroke-miterlimit: 10;
      }

      .cls-2 {
        fill: #999;
      }

      .cls-3 {
        fill: #ccc;
      }

      .cls-4 {
        fill: #f2f2f2;
      }

      .cls-5 {
        fill: none;
        stroke: blue;
      }

      .cls-6 {
        fill: blue;
      }

      .cls-7 {
        font-size: 11px;
        font-family: ArialMT, Arial;
      }
    </style>
  </defs>
  <g id="_125_x_7.5" data-name="125 x 7.5" transform="translate(0 0.49)">
    <rect id="Rectangle_538" data-name="Rectangle 538" class="cls-1" width="15" height="15" transform="translate(153.001 239.01)"/>
    <rect id="Rectangle_539" data-name="Rectangle 539" class="cls-1" width="15" height="15" transform="translate(153.001 224.01)"/>
    <rect id="Rectangle_540" data-name="Rectangle 540" class="cls-1" width="15" height="15" transform="translate(153.001 209.01)"/>
    <rect id="Rectangle_541" data-name="Rectangle 541" class="cls-1" width="15" height="15" transform="translate(138.001 239.01)"/>
    <rect id="Rectangle_542" data-name="Rectangle 542" class="cls-1" width="15" height="15" transform="translate(138.001 224.01)"/>
    <rect id="Rectangle_543" data-name="Rectangle 543" class="cls-1" width="15" height="15" transform="translate(138.001 209.01)"/>
    <rect id="Rectangle_544" data-name="Rectangle 544" class="cls-1" width="15" height="15" transform="translate(123.001 239.01)"/>
    <rect id="Rectangle_545" data-name="Rectangle 545" class="cls-1" width="15" height="15" transform="translate(123.001 224.01)"/>
    <rect id="Rectangle_546" data-name="Rectangle 546" class="cls-1" width="15" height="15" transform="translate(123.001 209.01)"/>
    <rect id="Rectangle_547" data-name="Rectangle 547" class="cls-2" width="15" height="20" transform="translate(153.001 189.01)"/>
    <rect id="Rectangle_548" data-name="Rectangle 548" class="cls-2" width="15" height="20" transform="translate(138.001 189.01)"/>
    <rect id="Rectangle_549" data-name="Rectangle 549" class="cls-2" width="15" height="20" transform="translate(123.001 189.01)"/>
    <rect id="Rectangle_550" data-name="Rectangle 550" class="cls-3" width="15" height="30" transform="translate(153.001 159.01)"/>
    <rect id="Rectangle_551" data-name="Rectangle 551" class="cls-3" width="15" height="30" transform="translate(153.001 129.01)"/>
    <rect id="Rectangle_552" data-name="Rectangle 552" class="cls-3" width="15" height="30" transform="translate(138.001 159.01)"/>
    <rect id="Rectangle_553" data-name="Rectangle 553" class="cls-3" width="15" height="30" transform="translate(138.001 129.01)"/>
    <rect id="Rectangle_554" data-name="Rectangle 554" class="cls-3" width="15" height="30" transform="translate(123.001 159.01)"/>
    <rect id="Rectangle_555" data-name="Rectangle 555" class="cls-3" width="15" height="30" transform="translate(123.001 129.01)"/>
    <rect id="Rectangle_556" data-name="Rectangle 556" class="cls-4" width="15" height="43" transform="translate(153.001 86.01)"/>
    <rect id="Rectangle_557" data-name="Rectangle 557" class="cls-4" width="15" height="43" transform="translate(138.001 86.01)"/>
    <rect id="Rectangle_558" data-name="Rectangle 558" class="cls-4" width="15" height="43" transform="translate(123.001 86.01)"/>
    <rect id="Rectangle_559" data-name="Rectangle 559" class="cls-4" width="15" height="43" transform="translate(153.001 43.01)"/>
    <rect id="Rectangle_560" data-name="Rectangle 560" class="cls-4" width="15" height="43" transform="translate(138.001 43.01)"/>
    <rect id="Rectangle_561" data-name="Rectangle 561" class="cls-4" width="15" height="43" transform="translate(123.001 43.01)"/>
    <rect id="Rectangle_562" data-name="Rectangle 562" class="cls-1" width="15" height="15" transform="translate(108.001 239.01)"/>
    <rect id="Rectangle_563" data-name="Rectangle 563" class="cls-1" width="15" height="15" transform="translate(108.001 224.01)"/>
    <rect id="Rectangle_564" data-name="Rectangle 564" class="cls-1" width="15" height="15" transform="translate(108.001 209.01)"/>
    <rect id="Rectangle_565" data-name="Rectangle 565" class="cls-1" width="15" height="15" transform="translate(93.001 239.01)"/>
    <rect id="Rectangle_566" data-name="Rectangle 566" class="cls-1" width="15" height="15" transform="translate(93.001 224.01)"/>
    <rect id="Rectangle_567" data-name="Rectangle 567" class="cls-1" width="15" height="15" transform="translate(93.001 209.01)"/>
    <rect id="Rectangle_568" data-name="Rectangle 568" class="cls-1" width="15" height="15" transform="translate(78.001 239.01)"/>
    <rect id="Rectangle_569" data-name="Rectangle 569" class="cls-1" width="15" height="15" transform="translate(78.001 224.01)"/>
    <rect id="Rectangle_570" data-name="Rectangle 570" class="cls-1" width="15" height="15" transform="translate(78.001 209.01)"/>
    <rect id="Rectangle_571" data-name="Rectangle 571" class="cls-2" width="15" height="20" transform="translate(108.001 189.01)"/>
    <rect id="Rectangle_572" data-name="Rectangle 572" class="cls-2" width="15" height="20" transform="translate(93.001 189.01)"/>
    <rect id="Rectangle_573" data-name="Rectangle 573" class="cls-2" width="15" height="20" transform="translate(78.001 189.01)"/>
    <rect id="Rectangle_574" data-name="Rectangle 574" class="cls-3" width="15" height="30" transform="translate(108.001 159.01)"/>
    <rect id="Rectangle_575" data-name="Rectangle 575" class="cls-3" width="15" height="30" transform="translate(108.001 129.01)"/>
    <rect id="Rectangle_576" data-name="Rectangle 576" class="cls-3" width="15" height="30" transform="translate(93.001 159.01)"/>
    <rect id="Rectangle_577" data-name="Rectangle 577" class="cls-3" width="15" height="30" transform="translate(93.001 129.01)"/>
    <rect id="Rectangle_578" data-name="Rectangle 578" class="cls-3" width="15" height="30" transform="translate(78.001 159.01)"/>
    <rect id="Rectangle_579" data-name="Rectangle 579" class="cls-3" width="15" height="30" transform="translate(78.001 129.01)"/>
    <rect id="Rectangle_580" data-name="Rectangle 580" class="cls-4" width="15" height="43" transform="translate(108.001 86.01)"/>
    <rect id="Rectangle_581" data-name="Rectangle 581" class="cls-4" width="15" height="43" transform="translate(93.001 86.01)"/>
    <rect id="Rectangle_582" data-name="Rectangle 582" class="cls-4" width="15" height="43" transform="translate(78.001 86.01)"/>
    <rect id="Rectangle_583" data-name="Rectangle 583" class="cls-4" width="15" height="43" transform="translate(108.001 43.01)"/>
    <rect id="Rectangle_584" data-name="Rectangle 584" class="cls-4" width="15" height="43" transform="translate(93.001 43.01)"/>
    <rect id="Rectangle_585" data-name="Rectangle 585" class="cls-4" width="15" height="43" transform="translate(78.001 43.01)"/>
    <rect id="Rectangle_586" data-name="Rectangle 586" class="cls-1" width="15" height="15" transform="translate(63.001 239.01)"/>
    <rect id="Rectangle_587" data-name="Rectangle 587" class="cls-1" width="15" height="15" transform="translate(63.001 224.01)"/>
    <rect id="Rectangle_588" data-name="Rectangle 588" class="cls-1" width="15" height="15" transform="translate(63.001 209.01)"/>
    <rect id="Rectangle_589" data-name="Rectangle 589" class="cls-1" width="15" height="15" transform="translate(48.001 239.01)"/>
    <rect id="Rectangle_590" data-name="Rectangle 590" class="cls-1" width="15" height="15" transform="translate(48.001 224.01)"/>
    <rect id="Rectangle_591" data-name="Rectangle 591" class="cls-1" width="15" height="15" transform="translate(48.001 209.01)"/>
    <rect id="Rectangle_592" data-name="Rectangle 592" class="cls-1" width="15" height="15" transform="translate(33.001 239.01)"/>
    <rect id="Rectangle_593" data-name="Rectangle 593" class="cls-1" width="15" height="15" transform="translate(33.001 224.01)"/>
    <rect id="Rectangle_594" data-name="Rectangle 594" class="cls-1" width="15" height="15" transform="translate(33.001 209.01)"/>
    <rect id="Rectangle_595" data-name="Rectangle 595" class="cls-2" width="15" height="20" transform="translate(63.001 189.01)"/>
    <rect id="Rectangle_596" data-name="Rectangle 596" class="cls-2" width="15" height="20" transform="translate(48.001 189.01)"/>
    <rect id="Rectangle_597" data-name="Rectangle 597" class="cls-2" width="15" height="20" transform="translate(33.001 189.01)"/>
    <rect id="Rectangle_598" data-name="Rectangle 598" class="cls-3" width="15" height="30" transform="translate(63.001 159.01)"/>
    <rect id="Rectangle_599" data-name="Rectangle 599" class="cls-3" width="15" height="30" transform="translate(63.001 129.01)"/>
    <rect id="Rectangle_600" data-name="Rectangle 600" class="cls-3" width="15" height="30" transform="translate(48.001 159.01)"/>
    <rect id="Rectangle_601" data-name="Rectangle 601" class="cls-3" width="15" height="30" transform="translate(48.001 129.01)"/>
    <rect id="Rectangle_602" data-name="Rectangle 602" class="cls-3" width="15" height="30" transform="translate(33.001 159.01)"/>
    <rect id="Rectangle_603" data-name="Rectangle 603" class="cls-3" width="15" height="30" transform="translate(33.001 129.01)"/>
    <rect id="Rectangle_604" data-name="Rectangle 604" class="cls-4" width="15" height="43" transform="translate(63.001 86.01)"/>
    <rect id="Rectangle_605" data-name="Rectangle 605" class="cls-4" width="15" height="43" transform="translate(48.001 86.01)"/>
    <rect id="Rectangle_606" data-name="Rectangle 606" class="cls-4" width="15" height="43" transform="translate(33.001 86.01)"/>
    <rect id="Rectangle_607" data-name="Rectangle 607" class="cls-4" width="15" height="43" transform="translate(63.001 43.01)"/>
    <rect id="Rectangle_608" data-name="Rectangle 608" class="cls-4" width="15" height="43" transform="translate(48.001 43.01)"/>
    <rect id="Rectangle_609" data-name="Rectangle 609" class="cls-4" width="15" height="43" transform="translate(33.001 43.01)"/>
    <line id="Line_120" data-name="Line 120" class="cls-5" x2="15" transform="translate(167.996 254.005) rotate(90)"/>
    <line id="Line_121" data-name="Line 121" class="cls-5" x1="15" transform="translate(152.996 254.005) rotate(90)"/>
    <line id="Line_122" data-name="Line 122" class="cls-5" y2="13.19" transform="translate(167.096 261.505) rotate(90)"/>
    <g id="Group_114" data-name="Group 114" transform="translate(597.626 94.025) rotate(90)">
      <path id="Path_21" data-name="Path 21" class="cls-6" d="M163.88,435.65a.376.376,0,0,0,.52-.12l3.08-4.84,3.08,4.84a.373.373,0,1,0,.63-.4l-3.4-5.34a.373.373,0,0,0-.32-.17.4.4,0,0,0-.32.17l-3.4,5.34a.361.361,0,0,0-.06.2A.448.448,0,0,0,163.88,435.65Z"/>
    </g>
    <g id="Group_115" data-name="Group 115" transform="translate(597.626 94.025) rotate(90)">
      <path id="Path_22" data-name="Path 22" class="cls-6" d="M163.88,438.6a.376.376,0,0,1,.52.12l3.08,4.84,3.08-4.84a.373.373,0,1,1,.63.4l-3.4,5.34a.373.373,0,0,1-.32.17.4.4,0,0,1-.32-.17l-3.4-5.34a.361.361,0,0,1-.06-.2A.448.448,0,0,1,163.88,438.6Z"/>
    </g>
    <text id="_7.5" data-name="7.5" class="cls-7" transform="translate(153 279.005)"><tspan x="0" y="0">7.5</tspan></text>
    <line id="Line_123" data-name="Line 123" class="cls-5" x2="15" transform="translate(168.001 239.01)"/>
    <line id="Line_124" data-name="Line 124" class="cls-5" x1="15" transform="translate(168.001 254.01)"/>
    <line id="Line_125" data-name="Line 125" class="cls-5" x2="15" transform="translate(168.001 189.01)"/>
    <line id="Line_126" data-name="Line 126" class="cls-5" x1="15" transform="translate(168.001 209.01)"/>
    <line id="Line_127" data-name="Line 127" class="cls-5" x2="15" transform="translate(168.001 159.01)"/>
    <line id="Line_128" data-name="Line 128" class="cls-5" x1="15" transform="translate(168.001 129.01)"/>
    <line id="Line_129" data-name="Line 129" class="cls-5" x2="15" transform="translate(168.001 86.01)"/>
    <text id="_7.5-2" data-name="7.5" class="cls-7" transform="translate(183 252.006)"><tspan x="0" y="0">7.5</tspan></text>
    <text id="_10" data-name="10" class="cls-7" transform="translate(183 207.006)"><tspan x="0" y="0">10</tspan></text>
    <text id="_15" data-name="15" class="cls-7" transform="translate(183 187.006)"><tspan x="0" y="0">15</tspan></text>
    <text id="_21.5" data-name="21.5" class="cls-7" transform="translate(183 127.006)"><tspan x="0" y="0">21.5</tspan></text>
    <line id="Line_130" data-name="Line 130" class="cls-5" y2="41.19" transform="translate(175.501 86.91)"/>
    <g id="Group_116" data-name="Group 116" transform="translate(8.021 -190.62)">
      <path id="Path_15" data-name="Path 15" class="cls-6" d="M163.88,282.65a.376.376,0,0,0,.52-.12l3.08-4.84,3.08,4.84a.373.373,0,1,0,.63-.4l-3.4-5.34a.373.373,0,0,0-.32-.17.4.4,0,0,0-.32.17l-3.4,5.34a.361.361,0,0,0-.06.2A.448.448,0,0,0,163.88,282.65Z"/>
    </g>
    <g id="Group_117" data-name="Group 117" transform="translate(8.021 -190.62)">
      <path id="Path_16" data-name="Path 16" class="cls-6" d="M163.88,313.6a.376.376,0,0,1,.52.12l3.08,4.84,3.08-4.84a.373.373,0,1,1,.63.4l-3.4,5.34a.373.373,0,0,1-.32.17.4.4,0,0,1-.32-.17l-3.4-5.34a.361.361,0,0,1-.06-.2A.448.448,0,0,1,163.88,313.6Z"/>
    </g>
    <line id="Line_131" data-name="Line 131" class="cls-5" y2="28.19" transform="translate(175.501 159.91)"/>
    <g id="Group_118" data-name="Group 118" transform="translate(8.021 -190.62)">
      <path id="Path_17" data-name="Path 17" class="cls-6" d="M163.88,355.65a.376.376,0,0,0,.52-.12l3.08-4.84,3.08,4.84a.373.373,0,1,0,.63-.4l-3.4-5.34a.373.373,0,0,0-.32-.17.4.4,0,0,0-.32.17l-3.4,5.34a.361.361,0,0,0-.06.2A.448.448,0,0,0,163.88,355.65Z"/>
    </g>
    <g id="Group_119" data-name="Group 119" transform="translate(8.021 -190.62)">
      <path id="Path_18" data-name="Path 18" class="cls-6" d="M163.88,373.6a.376.376,0,0,1,.52.12l3.08,4.84,3.08-4.84a.373.373,0,1,1,.63.4l-3.4,5.34a.373.373,0,0,1-.32.17.4.4,0,0,1-.32-.17l-3.4-5.34a.361.361,0,0,1-.06-.2A.448.448,0,0,1,163.88,373.6Z"/>
    </g>
    <line id="Line_132" data-name="Line 132" class="cls-5" y1="18.19" transform="translate(175.501 189.91)"/>
    <g id="Group_120" data-name="Group 120" transform="translate(8.021 -190.62)">
      <path id="Path_19" data-name="Path 19" class="cls-6" d="M171.08,393.6a.376.376,0,0,0-.52.12l-3.08,4.84-3.08-4.84a.373.373,0,1,0-.63.4l3.4,5.34a.373.373,0,0,0,.32.17.4.4,0,0,0,.32-.17l3.4-5.34a.361.361,0,0,0,.06-.2A.448.448,0,0,0,171.08,393.6Z"/>
    </g>
    <g id="Group_121" data-name="Group 121" transform="translate(8.021 -190.62)">
      <path id="Path_20" data-name="Path 20" class="cls-6" d="M171.08,385.65a.376.376,0,0,1-.52-.12l-3.08-4.84-3.08,4.84a.373.373,0,1,1-.63-.4l3.4-5.34a.373.373,0,0,1,.32-.17.4.4,0,0,1,.32.17l3.4,5.34a.361.361,0,0,1,.06.2A.448.448,0,0,1,171.08,385.65Z"/>
    </g>
    <line id="Line_133" data-name="Line 133" class="cls-5" y2="13.19" transform="translate(175.501 239.91)"/>
    <g id="Group_122" data-name="Group 122" transform="translate(8.021 -190.62)">
      <path id="Path_21-2" data-name="Path 21" class="cls-6" d="M163.88,435.65a.376.376,0,0,0,.52-.12l3.08-4.84,3.08,4.84a.373.373,0,1,0,.63-.4l-3.4-5.34a.373.373,0,0,0-.32-.17.4.4,0,0,0-.32.17l-3.4,5.34a.361.361,0,0,0-.06.2A.448.448,0,0,0,163.88,435.65Z"/>
    </g>
    <g id="Group_123" data-name="Group 123" transform="translate(8.021 -190.62)">
      <path id="Path_22-2" data-name="Path 22" class="cls-6" d="M163.88,438.6a.376.376,0,0,1,.52.12l3.08,4.84,3.08-4.84a.373.373,0,1,1,.63.4l-3.4,5.34a.373.373,0,0,1-.32.17.4.4,0,0,1-.32-.17l-3.4-5.34a.361.361,0,0,1-.06-.2A.448.448,0,0,1,163.88,438.6Z"/>
    </g>
    <rect id="Rectangle_610" data-name="Rectangle 610" class="cls-4" width="15" height="43" transform="translate(153.001 0.01)"/>
    <rect id="Rectangle_611" data-name="Rectangle 611" class="cls-4" width="15" height="43" transform="translate(138.001 0.01)"/>
    <rect id="Rectangle_612" data-name="Rectangle 612" class="cls-4" width="15" height="43" transform="translate(123.001 0.01)"/>
    <rect id="Rectangle_613" data-name="Rectangle 613" class="cls-4" width="15" height="43" transform="translate(108.001 0.01)"/>
    <rect id="Rectangle_614" data-name="Rectangle 614" class="cls-4" width="15" height="43" transform="translate(93.001 0.01)"/>
    <rect id="Rectangle_615" data-name="Rectangle 615" class="cls-4" width="15" height="43" transform="translate(78.001 0.01)"/>
    <rect id="Rectangle_616" data-name="Rectangle 616" class="cls-4" width="15" height="43" transform="translate(63.001 0.01)"/>
    <rect id="Rectangle_617" data-name="Rectangle 617" class="cls-4" width="15" height="43" transform="translate(48.001 0.01)"/>
    <rect id="Rectangle_618" data-name="Rectangle 618" class="cls-4" width="15" height="43" transform="translate(33.001 0.01)"/>
    <line id="Line_165" data-name="Line 165" class="cls-5" x1="15" transform="translate(18.001 254.01)"/>
    <line id="Line_166" data-name="Line 166" class="cls-5" x2="15" transform="translate(18.001 0.01)"/>
    <line id="Line_167" data-name="Line 167" class="cls-5" y2="253.595" transform="translate(25.501 0.91)"/>
    <g id="Group_150" data-name="Group 150" transform="translate(-141.979 -276.62)">
      <path id="Path_15-2" data-name="Path 15" class="cls-6" d="M163.88,282.65a.376.376,0,0,0,.52-.12l3.08-4.84,3.08,4.84a.373.373,0,1,0,.63-.4l-3.4-5.34a.373.373,0,0,0-.32-.17.4.4,0,0,0-.32.17l-3.4,5.34a.361.361,0,0,0-.06.2A.448.448,0,0,0,163.88,282.65Z"/>
    </g>
    <g id="Group_151" data-name="Group 151" transform="translate(-141.979 -65.62)">
      <path id="Path_16-2" data-name="Path 16" class="cls-6" d="M163.88,313.6a.376.376,0,0,1,.52.12l3.08,4.84,3.08-4.84a.373.373,0,1,1,.63.4l-3.4,5.34a.373.373,0,0,1-.32.17.4.4,0,0,1-.32-.17l-3.4-5.34a.361.361,0,0,1-.06-.2A.448.448,0,0,1,163.88,313.6Z"/>
    </g>
    <text id="_125" data-name="125" class="cls-7" transform="translate(0 132.006)"><tspan x="0" y="0">125</tspan></text>
  </g>
</svg>
