<?xml version="1.0" encoding="utf-8"?>
<!-- Generator: Adobe Illustrator 24.1.2, SVG Export Plug-In . SVG Version: 6.00 Build 0)  -->
<svg version="1.1" id="Слой_1" xmlns="http://www.w3.org/2000/svg" xmlns:xlink="http://www.w3.org/1999/xlink" x="0px" y="0px"
	 viewBox="0 0 300 80" style="enable-background:new 0 0 300 80;" xml:space="preserve">
<style type="text/css">
	.st0{fill-rule:evenodd;clip-rule:evenodd;fill:#697077;}
	.st1{fill:#697077;}
</style>
<path class="st0" d="M88.3,37.4v3.2V41c0,0.5,0,0.9,0.1,1.2c0.1,0.4,0.3,0.7,0.7,0.8l-3.3,0.1c0.3-0.1,0.5-0.4,0.6-0.8
	c0.1-0.3,0.1-0.7,0.1-1.2v-0.5V34v-0.5c0-0.5,0-0.8-0.1-1.1c-0.1-0.4-0.3-0.6-0.6-0.8l3.3-0.1c-0.3,0.1-0.5,0.4-0.6,0.7
	c-0.1,0.4-0.2,0.8-0.2,1.3V34v2.2h6.3V34v-0.6c0-0.5,0-0.8-0.1-1.1c-0.1-0.4-0.3-0.6-0.6-0.8l3.3-0.1c-0.3,0.1-0.5,0.4-0.6,0.8
	c-0.1,0.4-0.1,0.8-0.1,1.3V34v6.6V41c0,0.5,0,0.9,0.1,1.2c0.1,0.4,0.3,0.7,0.7,0.8l-3.3,0.1c0.3-0.1,0.4-0.3,0.6-0.6
	c0.1-0.3,0.2-0.7,0.2-1.4v-0.5v-3.2L88.3,37.4L88.3,37.4z M35.4,38c-0.3,0-0.7,0-1.1,0v0c0.3,0,0.6,0,0.9,0C35.2,38,35.3,38,35.4,38
	L35.4,38z M44.6,38c-0.4,0-1,0-1.8,0v0c0.4,0,0.8,0,1.1,0H44.6z M40,38c-0.3,0-0.7,0-1.2,0v0c0.4,0,0.8,0,1,0C39.9,38,40,38,40,38
	L40,38z M42.1,37.9C42.1,37.9,42.1,37.9,42.1,37.9C42.1,37.9,42.1,37.9,42.1,37.9z M20.7,38c-0.3,0-0.7,0-1.1,0v0c0.3,0,0.6,0,0.9,0
	C20.6,38,20.6,38,20.7,38z M29.3,38c-0.2,0-0.3,0-0.6,0l-0.6,0v0c0.3,0,0.5,0,0.7,0C28.9,38,29.1,38,29.3,38z M36.1,38.6
	c0,0-0.1,0.1-0.1,0.1c0,0.1-0.1,0.3-0.1,0.8c0,0.6,0,1.3,0,1.9v0.5c0.3,0,0.9,0,1.6,0c0.1,0,0.2,0,0.3,0c-0.5,0-1,0-1.2,0v-0.5
	c0-0.6,0-1.3,0-1.9c0-0.4,0-0.7,0.1-0.8c0-0.1,0.1-0.1,0.1-0.1c0.1,0,0.3-0.1,0.7-0.1v-0.5c-0.2,0-0.5,0-0.7,0v0.5
	C36.4,38.5,36.2,38.5,36.1,38.6L36.1,38.6z M21.4,38.6c0,0-0.1,0.1-0.1,0.1c0,0.1-0.1,0.3-0.1,0.8c0,0.6,0,1.3,0,1.9v0.5
	c0.3,0,0.9,0,1.6,0c0.1,0,0.2,0,0.3,0c-0.5,0-1,0-1.2,0v-0.5c0-0.6,0-1.3,0-1.9c0-0.4,0-0.7,0.1-0.8c0-0.1,0.1-0.1,0.1-0.1
	c0.1,0,0.3-0.1,0.7-0.1v-0.5c-0.2,0-0.5,0-0.7,0v0.5C21.7,38.5,21.5,38.5,21.4,38.6L21.4,38.6z M25.4,38c-0.3,0-0.7,0-1.2,0v0
	c0.4,0,0.8,0,0.9,0C25.2,38,25.3,38,25.4,38L25.4,38z M32.8,38.8c0.1,0.3,0.2,0.7,0.2,1.1c0,0.8-0.2,1.5-0.7,2
	c-0.4,0.5-0.8,0.7-1.4,0.8c0.1,0,0.1,0,0.2,0c0.1,0,0.2,0,0.3,0c0.7,0,1.2-0.3,1.7-0.8c0.4-0.5,0.7-1.2,0.7-2c0-0.4-0.1-0.8-0.2-1.1
	c-0.1-0.3-0.4-0.5-0.6-0.7c-0.3-0.1-0.7-0.2-1.3-0.2c-0.1,0-0.3,0-0.6,0c0.5,0,0.9,0.1,1.2,0.2C32.5,38.3,32.7,38.5,32.8,38.8
	L32.8,38.8z M35.9,42.7v0.4c0,1.1,0,10.8,0,11.4c0,0.4,0.1,0.6,0.1,0.7c0.1,0.1,0.3,0.1,0.8,0.2v0.5l-2.1,1.4l0.4,0.2l2.4-1.7v-0.5
	c-0.4,0-0.7-0.1-0.8-0.2c-0.1-0.1-0.1-0.3-0.1-0.7c0-0.6,0-10.3,0-11.4v-0.4c0.5,0,1.2,0,1.9,0c-0.2,0-0.5,0-0.7,0
	C37.1,42.7,36.5,42.7,35.9,42.7L35.9,42.7z M49,38.6c-0.1,0.1-0.1,1.1-0.1,3.1c0,0.1,0,0.6,0,1.5l0,1.9c0,0.4,0,0.7,0,0.8
	c0,0.1,0,0.2,0.1,0.2c0,0,0.1,0.1,0.1,0.1c0.1,0,0.3,0,0.6,0.1v0.5l-2.5,1.8v0.5l3.2-2.3v-0.5c-0.4,0-0.6-0.1-0.6-0.1
	c-0.1,0-0.1,0-0.1-0.1c0,0-0.1-0.1-0.1-0.2c0-0.1,0-0.4,0-0.8l0-1.9c0-1,0-1.5,0-1.5c0-2,0-3,0.1-3.1c0.1-0.1,0.3-0.1,0.8-0.2v-0.5
	c-0.3,0-0.5,0-0.7,0v0.5C49.4,38.5,49.1,38.5,49,38.6z M21.2,42.7v0.4c0,1.1,0,3.3,0,3.9c0,0.7,0.4,1,0.9,1.3v0.3l0.7,0.5v-0.8
	C22.4,48,22,47.7,22,47c0-0.6,0-2.7,0-3.9v-0.4c0.5,0,1.2,0,1.9,0c-0.2,0-0.5,0-0.7,0C22.4,42.7,21.8,42.7,21.2,42.7L21.2,42.7z
	 M25.9,38.6c0,0-0.1,0.1-0.1,0.1c0,0.1,0,0.5-0.1,1.1c0,1,0,1.7,0,2.3l0,7.4c0,0.7,0,1.1,0,1.2c0.1,0.3,0.7,0.8,0.9,0.9v0.3l0.7,0.5
	v-0.8c-0.2-0.1-0.8-0.6-0.9-0.9c0-0.1,0-0.5,0-1.2l0-7.4c0-0.6,0-1.4,0-2.3c0-0.6,0-1,0.1-1.1c0-0.1,0.1-0.1,0.1-0.1
	c0.1,0,0.3-0.1,0.7-0.1v-0.5c-0.3,0-0.5,0-0.7,0v0.5C26.2,38.5,26,38.5,25.9,38.6z M44.4,38.7c0,0.2,0,0.5,0,0.9c0,0.8,0,1.4,0,1.9
	c0,2.2,0,6.4,0,7c0,0.5,0.1,0.8,0.1,0.9c0.1,0.1,0.3,0.1,0.8,0.2v0.5l-2.5,1.8v0.5l3.3-2.3v-0.5c-0.5,0-0.7-0.1-0.8-0.2
	c-0.1-0.1-0.1-0.4-0.1-0.9c0-0.5,0-4.8,0-7c0-0.5,0-1.1,0-1.9c0-0.4,0-0.7,0-0.9l0.8-0.1h-0.7L44.4,38.7z M30,42.3l0.1-0.2
	c0.1,0,0.1,0,0.2,0c0,0,0,0,0.1,0c0,0,0,0,0,0c0-0.9,0-2.1,0-3.4c0.1,0,0.1,0,0.2,0c-0.1,0-0.2-0.1-0.3-0.1c-0.2,0-0.4,0-0.6,0.1
	c0,1.4,0,2.5,0,3.4c0,0.3,0,9,0,10.7c0,0.9,0.3,1,1,1.4v0.3l0.7,0.5v-0.8c-0.7-0.5-1-0.5-1-1.4c0-1.5,0-8,0-10.1c-0.1,0-0.1,0-0.2,0
	C30.1,42.5,30.1,42.4,30,42.3L30,42.3z M40.6,38.6c0,0-0.1,0.1-0.1,0.1c0,0.1,0,0.4-0.1,1.1c0,1,0,1.7,0,2.3l0,8.7
	c0,0.7,0,1.1,0,1.2c0,0.1,0.1,0.2,0.1,0.2c0.1,0,0.3,0.1,0.7,0.1v0.5l-2.5,1.8V55l3.2-2.3v-0.5l0,0v-0.1c-0.4,0-0.7-0.1-0.7-0.1
	c-0.1,0-0.1-0.1-0.1-0.2c0-0.1,0-0.5,0-1.2l0-8.7c0-0.6,0-1.4,0-2.3c0-0.6,0-1,0.1-1.1c0-0.1,0-0.1,0.1-0.1c0.1,0,0.3-0.1,0.7-0.1
	c0,0,0,0,0,0v-0.5c-0.2,0-0.5,0-0.7,0v0.5C40.9,38.5,40.7,38.5,40.6,38.6L40.6,38.6z M109,60.7c-0.2-0.3-0.3-0.7-0.5-1.2l-2.6-7.2
	c-0.2-0.6-0.4-1.2-0.5-1.6c0-0.1,0-0.1,0-0.2l-2.8,0.1c0.2,0.1,0.3,0.1,0.4,0.2c0.1,0.1,0.1,0.2,0.1,0.4c0,0.1,0,0.2-0.1,0.4
	c-0.1,0.2-0.1,0.4-0.2,0.5l-2.8,7.2c-0.1,0.4-0.3,0.7-0.5,0.9c-0.2,0.3-0.5,0.4-0.7,0.4h-0.1l-0.2,0.8c-0.2-0.2-0.3-0.4-0.4-0.6
	c-0.1-0.2-0.3-0.7-0.6-1.4l-3.6-9l-2.8,0.1c0.2,0.1,0.4,0.1,0.4,0.2c0.1,0.1,0.1,0.2,0.1,0.4c0,0.1,0,0.3-0.1,0.4
	c-0.1,0.2-0.1,0.3-0.2,0.6l-2.9,7.3c-0.3,0.8-0.5,1.2-0.6,1.4c-0.3,0.5-0.6,0.9-1.1,1.1L90,62c-0.2-0.1-0.4-0.2-0.5-0.3
	c-0.1-0.1-0.1-0.3-0.1-0.4c0-0.2,0-0.3,0.1-0.5c0-0.2,0.1-0.4,0.2-0.6l0.9-2.5H95l0.9,2.5c0,0.1,0.1,0.3,0.2,0.6
	c0.1,0.3,0.2,0.5,0.2,0.6c0,0.2-0.2,0.5-0.6,0.7l2.8,0l-0.3,1.1c0.4-0.4,0.7-0.6,0.9-0.7c0.4-0.2,1-0.3,1.7-0.3h6.6
	c0.6,0,1,0.1,1.4,0.3c0.2,0.2,0.4,0.4,0.6,0.8l0.7-2.4L109,60.7L109,60.7z M100.8,60.8c0.3-0.3,0.5-0.7,0.8-1.4l2.5-6.9l3,8.4
	L100.8,60.8L100.8,60.8z M173.7,40.4c-0.2,0.5-0.5,0.9-0.8,1.1c-0.3,0.2-0.7,0.3-1.1,0.3c-0.1-0.2-0.3-0.7-0.6-1.3l-3.6-9l-2.8,0.1
	c0.2,0.1,0.4,0.1,0.4,0.2c0.1,0.1,0.1,0.2,0.1,0.4c0,0.1,0,0.3-0.1,0.4c-0.1,0.2-0.1,0.3-0.2,0.6l-2.9,7.3c-0.3,0.8-0.5,1.2-0.6,1.4
	c-0.3,0.5-0.6,0.9-1.1,1.1l3.2-0.1c-0.2-0.1-0.4-0.2-0.5-0.3c-0.1-0.1-0.1-0.3-0.1-0.4c0-0.2,0-0.3,0.1-0.5c0.1-0.2,0.1-0.4,0.2-0.6
	l0.9-2.5h4.4l0.9,2.5c0,0.1,0.1,0.3,0.2,0.6c0.1,0.3,0.2,0.5,0.2,0.6c0,0.2-0.2,0.5-0.6,0.7l2.8,0l0.1,0.3c0.7,0,1.2-0.2,1.7-0.7
	c0.5-0.5,0.9-1.2,1.2-2.2l2.5-6.9l2.7,7.8c0.2,0.6,0.3,0.9,0.3,1.1c0,0.3-0.2,0.5-0.5,0.7l3.2-0.1c-0.4-0.3-0.6-0.6-0.9-1.1
	c-0.2-0.5-0.3-0.9-0.5-1.4l-2.6-7.2c-0.2-0.6-0.4-1.2-0.5-1.6c0-0.1,0-0.1,0-0.2l-2.8,0.1c0.2,0.1,0.4,0.1,0.4,0.2
	c0.1,0.1,0.1,0.2,0.1,0.4c0,0.1,0,0.2-0.1,0.4c-0.1,0.2-0.1,0.4-0.2,0.5L173.7,40.4L173.7,40.4z M65.1,48.8c0,0-2.6,0.6-4.3,2.8
	c0.1-0.8,0.2-1.7,0.3-2.5c0.7-1.1,2.7-5-0.7-9.1c-2.8,4.5-0.6,8,0.2,9.1c-0.1,0.8-0.1,1.5-0.3,2.3c-0.6-2.5-2.6-3.9-2.6-3.9
	c-1.3,2.9,1.3,6.3,2,7c-0.2,0.9-0.5,1.8-0.8,2.7c-0.1-2.6-1.8-4.3-1.9-4.4V19.8H12.4l0,32.8c-0.1,0.1-1.9,1.9-1.9,4.4
	c-0.3-0.9-0.6-1.8-0.8-2.7c0.7-0.7,3.3-4,2-7c0,0-2.1,1.4-2.6,3.9c-0.1-0.8-0.2-1.5-0.3-2.3c0.8-1.1,3-4.6,0.2-9.1
	c-3.4,4.1-1.4,8-0.7,9.1c0.1,0.8,0.2,1.7,0.3,2.5c-1.6-2.2-4.3-2.8-4.3-2.8c0.1,3,3.7,5.1,4.8,5.6c0.2,0.9,0.5,1.8,0.8,2.7
	c-1.9-1.8-4.6-2-4.6-2c0.6,3,4.6,4.5,5.7,4.8c0.2,0.4,0.4,0.9,0.7,1.3c-2.1-1.4-4.5-1.4-4.5-1.4c0.9,3.2,5.2,4.5,6.5,4.8
	c0.4,0.8,1,1.5,1.6,2c0.1,0.1,0.2,0.3,0.4,0.4c-2.6-1.1-5.2-0.4-5.2-0.4c1.7,3,6.7,3,7.7,2.9c0.6,0.5,1.2,1.1,1.8,1.6
	c-2.7-0.6-5.2,0.7-5.2,0.7c2.2,2.5,7,1.7,8,1.3c0.9,0.6,1.9,1.1,2.9,1.6c-3,0-5.2,1.9-5.2,1.9c2.8,1.9,7.2-0.1,8.1-0.7
	c0.9,0.3,1.7,0.6,2.6,0.8c-3.1,0.4-5.1,2.7-5.1,2.7c3.5,1.7,8.4-1.9,8.4-2c0,0.2,4.9,3.8,8.4,2c0,0-2.1-2.3-5.1-2.7
	c0.9-0.2,1.8-0.5,2.6-0.8c0.9,0.6,5.3,2.6,8.1,0.7c0,0-2.3-1.9-5.2-1.9c1-0.5,2-1,2.9-1.6c1.1,0.3,5.8,1.2,8-1.3
	c0,0-2.4-1.2-5.2-0.7c0.6-0.5,1.2-1,1.8-1.6c1,0.1,6,0.1,7.7-2.9c0,0-2.7-0.7-5.2,0.4c0.1-0.1,0.2-0.2,0.3-0.3
	c0.6-0.5,1.2-1.1,1.6-1.9c0-0.1,0.1-0.2,0.1-0.3c1.3-0.2,5.6-1.6,6.5-4.8c0,0-2.4,0-4.5,1.4c0.2-0.4,0.4-0.9,0.7-1.3
	c1.2-0.3,5.1-1.8,5.7-4.8c0,0-2.6,0.2-4.6,2c0.3-0.9,0.6-1.8,0.8-2.7C61.4,53.9,65,51.8,65.1,48.8z M12.9,62.1
	c-0.4-0.7-0.8-1.5-1.2-2.3c0.2-0.3,0.5-0.8,0.8-1.5C12.5,59.6,12.6,60.9,12.9,62.1C12.9,62.1,12.9,62.1,12.9,62.1z M18.6,69.2
	c0-0.2,0.1-0.4,0.2-0.7c0.4,0.1,0.9,0.2,1.3,0.3c0.1,0.7,0.3,1.5,0.8,2.3C20.1,70.5,19.3,69.9,18.6,69.2L18.6,69.2z M46.1,72.7
	c-0.9,0.5-1.8,1-2.7,1.5c1.8-2.1,1.7-4.8,1.7-4.8c-3.2,0.7-4.5,4.9-4.7,6.1c-0.8,0.3-1.6,0.6-2.5,0.8c2.2-1.9,2.5-4.7,2.5-4.7
	c-3.7,0.3-5.6,5.1-5.7,5.8c-0.1-0.7-2-5.5-5.7-5.8c0,0,0.3,2.9,2.5,4.7c-0.8-0.2-1.7-0.5-2.5-0.8c-0.2-1.2-1.5-5.4-4.7-6.1
	c0,0-0.1,2.7,1.7,4.8c-0.9-0.5-1.8-0.9-2.7-1.5c0.1-0.6,0-2.1-0.4-3.6c0.9,0,1.8,0,2.7,0c1.1,0,2.2-0.1,3.3,0.1
	c1.3,0.2,2,0.6,3.1,1.4c0.4,0.3,0.8,0.6,1.1,0.8l1.7,1.3l1.9-1.4c2.4-1.8,3.3-2.3,6.2-2.1c1.3,0.1,2.6,0.1,3.8,0
	C46.1,70.6,46.1,72.1,46.1,72.7L46.1,72.7z M48.6,71.1c0.5-0.8,0.7-1.5,0.8-2.3c0.4-0.1,0.9-0.2,1.3-0.3c0,0.3,0.1,0.5,0.2,0.7
	C50.1,69.9,49.3,70.5,48.6,71.1z M55.2,57.4c0,2.1-0.2,4-0.8,5.6c-0.3,0.7-0.7,1.3-1.2,1.9c-0.7,0.7-1.5,1.3-2.7,1.7
	c-0.3,0.1-0.7,0.2-1.1,0.3C49,67,48.5,67.1,48,67.2c-0.2,0-0.4,0-0.6,0.1c-1.9,0.2-3.4,0.1-4.6,0.1c-2.3-0.1-3.8-0.2-7.4,2.5
	l-0.8,0.6L34,69.9c-0.4-0.2-0.7-0.5-1.1-0.8c-1-0.7-2-1.5-3.9-1.7c-1.1-0.1-2.3-0.1-3.6-0.1c-1.2,0-2.4,0-3.5-0.1
	c-0.2,0-0.5,0-0.7-0.1c-0.4-0.1-0.9-0.1-1.2-0.2c-0.4-0.1-0.7-0.2-1.1-0.3c-1.2-0.4-2-1-2.7-1.8c-0.5-0.6-0.9-1.2-1.2-1.8
	c-0.7-1.7-0.8-3.7-0.8-5.6c0-0.3,0-0.6,0-0.9V21.7h40.9l0,34.8C55.2,56.8,55.2,57.1,55.2,57.4L55.2,57.4z M56.6,62.1
	C56.5,62.1,56.5,62.1,56.6,62.1c0.2-1.2,0.3-2.5,0.4-3.8c0.3,0.7,0.6,1.3,0.8,1.6C57.4,60.6,57,61.4,56.6,62.1z M29,15.2h1.5
	l-1.7-3.9l3.6,3.9h2.2l-5.8-8.7c-1,0.1-1.9,0.5-2.5,1.3C25.5,8.5,25,9.6,25,10.8c0,1.2,0.5,2.3,1.2,3.1C26.9,14.7,27.9,15.1,29,15.2
	L29,15.2z M37.1,15.2l3.6-3.9L39,15.2h1.5c1.1,0,2-0.5,2.8-1.3c0.7-0.8,1.2-1.9,1.2-3.1c0-1.2-0.5-2.3-1.2-3.1
	c-0.7-0.7-1.5-1.2-2.5-1.3l-5.8,8.7H37.1L37.1,15.2z M39.3,6.4h-3.4l-1.1,3l-1.1-3h-3.4l4.5,6.8L39.3,6.4z M34.2,3.4
	c0,0-0.8,0.4-0.8,1.2c0,0.7,0.6,1.3,1.3,1.3c0.7,0,1.3-0.6,1.3-1.3c0-0.8-0.8-1.2-0.8-1.2V2.1h1V1h-1V0h-1.1v1h-1v1.1h1V3.4z
	 M29.9,18h9.6v-1.8h-9.6V18z M66.8,18.5c0.2-0.1,0.3-0.2,0.4-0.3c3-2.4,2.8-6.4-0.8-8.3c-5.1-2.7-14.4,1.4-19.9,1.4
	c0,0-0.1,0.8-0.4,1.8c0,0,0-0.1,0.1-0.1c1.4,0.1,5.8-1.1,8.9-1.7C52.9,12,48.9,14,46,13.7c-0.1,0.3-0.2,0.6-0.3,0.8
	c2.1-0.1,4.3-0.5,6.1-1.6c-2.4,2.4-6.1,2.4-6.4,2.4c-0.1,0.2-0.2,0.4-0.3,0.5c8.9-0.2,10.3-2.4,15.5-2.4c4,0,5,1.7,5,3.3
	c0,0.3-0.1,0.6-0.1,0.9c0,0,0,0-0.1,0c0,0.1,0,0.1,0,0.2c0,0.6-0.1,0.9-0.7,1.4l-0.1,0l-1.7-1l1.4,0.2l-0.6-0.4l0.7,0.1l-1.1-0.4
	l1.3,0.2l-1.1-0.5l1.2,0.2L64,17.2l0.6-0.1c-0.4-0.1-0.9-0.2-1.3,0c-0.8,0.5-1.2,1-1.6,1.4c-0.3,0-0.7,0.2-0.8,0.7
	c-0.1,0.3-0.1,0.5,0,0.7c0.5,1.1,3,1.6,3.9,4.1c1.1,3-3.3,6.5-4.1,11c-0.6,3.2,0.6,1.6,2.2,2.1c0,0,0,0-0.1,0c0-2,0.8-3.9,1.8-5.6
	c-0.7,2.3-0.7,3.9-1,6c0,0,0,0,0,0c0.4,0.3,0.9,0.9,1.4,1.8c0-5.1,2.4-8.7,4-13.7C70.3,21.7,67.9,19.3,66.8,18.5L66.8,18.5z
	 M68.1,15.3c0.5-4.4-5.9-5-8.8-4.9C62.7,9.6,69.4,10.2,68.1,15.3z M59.2,11.4c3.7-0.2,8.3,0.3,7.8,5.1
	C67.2,11.4,58.8,11.4,59.2,11.4z M62.3,20c-0.8-0.6-0.2-1.3-0.2-1.4l0,0l0.2,0.1c0.1,0,0.1,0,0.2,0.1l0.5,0.2c0,0,0,0,0,0.1
	c-0.1,0.2-0.3,0.6,0.2,1c0.6,0.4,2.2,1,2.8,2.9C65.1,21,63.1,20.6,62.3,20L62.3,20z M66.9,23.2c0.1-1.7-1.2-2.7-2.5-3.5l0,0l0.6-0.3
	c0,0,0.1,0,0.1,0.1C66.4,20.1,67.2,21.9,66.9,23.2L66.9,23.2z M65.7,19.3l0.3-0.2l0.1-0.1l0,0c0,0,1.1,0.8,1.7,2.1
	C67.2,20.4,65.6,19.3,65.7,19.3L65.7,19.3z M5.7,37.6C5.7,37.6,5.7,37.6,5.7,37.6c-0.4-2.1-0.4-3.7-1-6c1,1.7,1.8,3.7,1.8,5.6
	c0,0,0,0-0.1,0c1.6-0.6,2.8,1.1,2.2-2.1c-0.8-4.5-5.2-8-4.1-11c0.9-2.5,3.4-3,3.9-4.1c0.1-0.2,0.1-0.5,0-0.7
	c-0.2-0.5-0.5-0.7-0.8-0.7c-0.3-0.4-0.8-0.9-1.6-1.4c-0.5-0.2-0.9-0.2-1.3,0l0.6,0.1l-0.8,0.4l1.2-0.2l-1.1,0.5L6,17.7l-1.1,0.4
	l0.7-0.1l-0.6,0.4l1.4-0.2l-1.7,1l-0.1,0C4.2,18.7,4,18.3,4,17.8c0-0.1,0-0.1,0-0.2c0,0,0,0-0.1,0c-0.1-0.3-0.1-0.6-0.1-0.9
	c-0.1-1.6,1-3.3,5-3.3c5.2,0,6.6,2.1,15.5,2.4c-0.1-0.1-0.2-0.3-0.3-0.5c-0.3,0-4.1,0-6.4-2.4c1.9,1.1,4,1.5,6.1,1.6
	c-0.1-0.3-0.2-0.6-0.3-0.8c-2.9,0.2-7-1.8-9.2-2.5c3.2,0.7,7.6,1.8,8.9,1.7c0,0,0,0.1,0.1,0.1c-0.2-0.9-0.4-1.8-0.4-1.8
	C17.4,11.3,8.1,7.2,3,9.9c-3.6,1.9-3.8,5.9-0.8,8.3c0.1,0.1,0.2,0.2,0.4,0.3c-1,0.8-3.5,3.2-2.3,7.2c1.6,5,4,8.6,4,13.7
	C4.8,38.5,5.2,38,5.7,37.6L5.7,37.6z M1.3,15.3c-1.3-5.1,5.4-5.6,8.8-4.9C7.2,10.3,0.8,10.9,1.3,15.3z M2.4,16.5
	c-0.5-4.8,4.1-5.3,7.8-5.1C10.6,11.4,2.3,11.4,2.4,16.5z M1.7,21.2c0.5-1.4,1.7-2.1,1.7-2.1l0,0l0.1,0.1l0.3,0.2
	C3.8,19.3,2.2,20.4,1.7,21.2L1.7,21.2z M4.2,19.5c0,0,0.1,0,0.1-0.1l0.6,0.3l0,0c-1.3,0.9-2.5,1.9-2.5,3.5C2.2,21.9,3,20.1,4.2,19.5
	L4.2,19.5z M3.5,22.9C4.1,21,5.7,20.4,6.3,20c0.5-0.3,0.2-0.8,0.2-1c0,0,0-0.1,0-0.1l0.5-0.2c0.1,0,0.1,0,0.2-0.1l0.2-0.1
	c0,0,0,0,0,0c0,0,0.6,0.8-0.2,1.4C6.3,20.6,4.3,21,3.5,22.9L3.5,22.9z M216.4,59.8c0,0.6,0,1,0.1,1.3c0.1,0.4,0.4,0.7,0.8,0.9
	l-3.5,0.1c0.3-0.1,0.5-0.4,0.6-0.8c0.1-0.3,0.1-0.7,0.1-1.2v-0.5v-7.8H213c-0.4,0-0.8,0.1-1.2,0.2c-0.3,0.1-0.6,0.3-0.8,0.5v0.3
	c-0.5-0.3-1-0.6-1.6-0.7c-0.5-0.2-1.1-0.3-1.7-0.3c-1.2,0-2.2,0.4-3,1.2c-0.8,0.8-1.1,1.8-1.1,3.1c0,1.3,0.4,2.5,1.2,3.4
	c0.9,1,1.9,1.5,3.2,1.5c0.6,0,1.2-0.1,1.9-0.3s1.2-0.5,1.8-0.8l-0.8,2c-0.4,0.2-0.8,0.3-1.2,0.4c-0.4,0.1-0.9,0.1-1.4,0.1
	c-2.1,0-3.7-0.5-4.9-1.6c-1.2-1.1-1.8-2.6-1.8-4.5c0-1.8,0.6-3.3,1.7-4.4c1.1-1.1,2.6-1.7,4.4-1.7c0.5,0,1,0,1.5,0.1
	s1.1,0.2,1.6,0.3v1.5l0.5-1.8c0.1,0,0.2,0.1,0.4,0.1c0.2,0,0.3,0,0.3,0h6.9c0.2,0,0.3,0,0.5,0c0.1,0,0.2-0.1,0.4-0.1l-0.5,2.1
	c-0.1-0.3-0.3-0.5-0.6-0.6c-0.3-0.1-0.6-0.2-0.9-0.2h-1.6L216.4,59.8L216.4,59.8z M221.8,57.7h4.4l0.9,2.5c0,0.1,0.1,0.3,0.2,0.6
	c0.1,0.3,0.2,0.5,0.2,0.6c0,0.2-0.2,0.5-0.6,0.7l3.6-0.1c-0.4-0.2-0.8-0.6-1.1-1.1c-0.1-0.2-0.3-0.7-0.6-1.4l-3.6-9l-2.8,0.1
	c0.2,0.1,0.3,0.1,0.4,0.2c0.1,0.1,0.1,0.2,0.1,0.4c0,0.1,0,0.3-0.1,0.4c-0.1,0.2-0.1,0.3-0.2,0.6l-2.9,7.3c-0.3,0.8-0.5,1.2-0.6,1.4
	c-0.3,0.5-0.6,0.9-1.1,1.1l3.2-0.1c-0.2-0.1-0.4-0.2-0.5-0.3c-0.1-0.1-0.1-0.3-0.1-0.4c0-0.2,0-0.3,0.1-0.5c0-0.2,0.1-0.4,0.2-0.6
	L221.8,57.7L221.8,57.7z M224,52l1.7,4.4h-3.4L224,52z M231.6,53v-0.5c0-0.5,0-0.8-0.1-1.1c-0.1-0.4-0.3-0.6-0.6-0.8l4.1-0.1
	c1.1,0,2,0.2,2.7,0.7c0.6,0.5,1,1.1,1,1.9c0,0.6-0.2,1-0.5,1.4c-0.3,0.3-0.7,0.6-1.3,0.9c0.8,0.2,1.5,0.5,2,1
	c0.6,0.6,0.8,1.3,0.8,2.1c0,0.6-0.2,1.2-0.6,1.8c-0.4,0.6-0.9,1-1.5,1.3c-0.5,0.3-1.2,0.4-1.9,0.5c-0.4,0-1,0.1-2,0.1h-2.9
	c0.3-0.1,0.5-0.4,0.6-0.8c0.1-0.3,0.1-0.7,0.1-1.2v-0.5L231.6,53L231.6,53z M234.9,60.8c0.1,0,0.2,0,0.4,0c0.7,0,1.3-0.2,1.7-0.5
	c0.5-0.4,0.8-1,0.8-1.7c0-0.8-0.3-1.4-1-1.8c-0.6-0.4-1.3-0.5-2.2-0.5l-1.2,0.1v4.3L234.9,60.8L234.9,60.8z M234,55.2
	c0.7,0,1.3-0.1,1.8-0.4c0.6-0.3,1-0.8,1-1.5c0-0.5-0.2-1-0.6-1.3c-0.4-0.3-0.8-0.5-1.4-0.5c-0.1,0-0.2,0-0.2,0l-1.2,0.1v3.4H234
	L234,55.2z M240.9,62.1c0.3-0.1,0.5-0.4,0.6-0.8c0.1-0.3,0.1-0.7,0.1-1.2v-0.5V53v-0.5c0-0.5,0-0.8-0.1-1.1
	c-0.1-0.4-0.3-0.6-0.6-0.8l3.3-0.1c-0.3,0.1-0.5,0.4-0.6,0.7c-0.1,0.3-0.1,0.8-0.1,1.3V53v7.7c0.1,0,0.3,0,0.7,0c0.3,0,0.7,0,1.1,0
	c0.4,0,0.7,0,1,0c0.3,0,0.5,0,0.7-0.1V53v-0.6c0-0.5,0-0.8-0.1-1.1c-0.1-0.4-0.3-0.6-0.6-0.8l3.3-0.1c-0.3,0.1-0.5,0.4-0.6,0.7
	c-0.1,0.3-0.1,0.8-0.1,1.3V53v7.7c0.1,0,0.3,0,0.7,0c0.3,0,0.7,0,1.1,0c0.4,0,0.7,0,1,0c0.3,0,0.5,0,0.7-0.1V53v-0.6
	c0-0.5,0-0.8-0.1-1.1c-0.1-0.4-0.3-0.6-0.6-0.8l3.3-0.1c-0.3,0.1-0.5,0.4-0.6,0.8c-0.1,0.4-0.1,0.8-0.1,1.3V53v6.6v1.1h1.1l-0.7,2.4
	c-0.2-0.4-0.4-0.6-0.6-0.8c-0.3-0.2-0.8-0.3-1.4-0.3L240.9,62.1L240.9,62.1z M264.7,59.8v-6.9l-5.6,7.7c-0.4,0.5-0.8,0.9-1.1,1.2
	c-0.4,0.3-0.9,0.6-1.4,0.8v-9.8c0-0.6,0-1.1-0.1-1.3c-0.1-0.4-0.4-0.7-0.8-0.9l3.6,0c-0.4,0.3-0.7,0.6-0.8,1
	c-0.1,0.2-0.1,0.7-0.1,1.3v6.6l5.9-8.1l0.2-0.4c0.1-0.1,0.2-0.3,0.3-0.4h2.5c-0.3,0.2-0.5,0.5-0.6,0.8c-0.1,0.3-0.1,0.6-0.1,1v0.5v7
	v0.6c0,0.4,0,0.7,0.1,0.9c0.1,0.2,0.3,0.5,0.6,0.6l-3.6,0.1c0.4-0.3,0.7-0.6,0.9-1C264.6,60.8,264.7,60.4,264.7,59.8L264.7,59.8z
	 M269.3,53v-0.4c0-0.5,0-0.9-0.1-1.2c-0.1-0.4-0.3-0.7-0.7-0.8l3.4-0.1c-0.3,0.1-0.5,0.4-0.6,0.8c-0.1,0.4-0.1,0.8-0.1,1.3V53v6.6
	V60c0,0.5,0,0.9,0.1,1.2c0.1,0.4,0.3,0.7,0.7,0.8l-3.4,0.1c0.3-0.1,0.5-0.4,0.7-0.9c0.1-0.3,0.1-0.7,0.1-1.2v-0.4V53L269.3,53z
	 M273.6,53l-2.3,3.1l3.9,5.3c0.2,0.2,0.4,0.4,0.8,0.5c0.4,0.1,0.8,0.2,1.2,0.2l1.6-0.1c-0.5-0.2-0.9-0.5-1.2-0.7
	c-0.3-0.3-0.6-0.6-0.9-0.9l-3.5-4.7l4-5.2l-3.1,0.1c0.3,0.2,0.5,0.4,0.5,0.7c0,0.2-0.1,0.5-0.3,0.9C274,52.4,273.8,52.7,273.6,53
	L273.6,53z M290.2,56.2c0,1.8-0.6,3.2-1.9,4.4c-1.3,1.2-2.8,1.8-4.5,1.8c-1.8,0-3.3-0.6-4.5-1.7c-1.3-1.2-1.9-2.6-1.9-4.4
	c0-1.7,0.6-3.1,1.9-4.3c1.3-1.2,2.8-1.8,4.6-1.8c1.8,0,3.3,0.6,4.5,1.8C289.6,53.1,290.2,54.5,290.2,56.2L290.2,56.2z M279.4,56.1
	c0,1.3,0.4,2.4,1.2,3.4c0.9,1.1,2,1.6,3.3,1.6c1.3,0,2.4-0.4,3.1-1.3c0.8-0.9,1.2-2,1.2-3.3c0-1.4-0.4-2.5-1.2-3.5
	c-0.8-1-1.9-1.6-3.2-1.6c-1.3,0-2.4,0.4-3.2,1.3S279.4,54.7,279.4,56.1z M291.9,53v-0.5c0-0.5,0-0.8-0.1-1.1
	c-0.1-0.4-0.3-0.6-0.6-0.8l4.1-0.1c1.1,0,2,0.2,2.7,0.7c0.6,0.5,1,1.1,1,1.9c0,0.6-0.2,1-0.5,1.4c-0.3,0.3-0.7,0.6-1.3,0.9
	c0.8,0.2,1.5,0.5,2,1c0.6,0.6,0.8,1.3,0.8,2.1c0,0.6-0.2,1.2-0.6,1.8c-0.4,0.6-0.9,1-1.5,1.3c-0.5,0.3-1.2,0.4-1.9,0.5
	c-0.4,0-1,0.1-2,0.1h-2.9c0.3-0.1,0.5-0.4,0.6-0.8c0.1-0.3,0.1-0.7,0.1-1.2v-0.5V53z M295.2,60.8c0.1,0,0.2,0,0.4,0
	c0.7,0,1.3-0.2,1.7-0.5c0.5-0.4,0.8-1,0.8-1.7c0-0.8-0.3-1.4-1-1.8c-0.6-0.4-1.3-0.5-2.2-0.5l-1.2,0.1v4.3L295.2,60.8L295.2,60.8z
	 M294.2,55.2c0.7,0,1.3-0.1,1.8-0.4c0.6-0.3,1-0.8,1-1.5c0-0.5-0.2-1-0.6-1.3c-0.4-0.3-0.8-0.5-1.4-0.5c-0.1,0-0.2,0-0.2,0l-1.2,0.1
	v3.4H294.2z M101.2,38.7l-0.9,2.5c-0.1,0.2-0.2,0.4-0.2,0.6c0,0.2-0.1,0.3-0.1,0.5c0,0.2,0,0.3,0.1,0.4c0.1,0.1,0.3,0.2,0.5,0.3
	l-3.2,0.1c0.4-0.2,0.8-0.6,1.1-1.1c0.1-0.2,0.3-0.7,0.6-1.4l2.9-7.3c0.1-0.2,0.2-0.4,0.2-0.6c0.1-0.2,0.1-0.3,0.1-0.4
	c0-0.2,0-0.3-0.1-0.4c-0.1-0.1-0.2-0.2-0.4-0.2l2.8-0.1l3.6,9c0.3,0.7,0.5,1.2,0.6,1.4c0.3,0.5,0.6,0.8,1.1,1.1l-3.6,0.1
	c0.4-0.2,0.6-0.4,0.6-0.7c0-0.1,0-0.3-0.2-0.6c-0.1-0.3-0.2-0.5-0.2-0.6l-0.9-2.5H101.2L101.2,38.7z M103.4,33l-1.7,4.4h3.4
	L103.4,33z M110.2,43.1c0.3-0.1,0.5-0.4,0.6-0.8c0.1-0.3,0.1-0.7,0.1-1.2v-0.5V34v-0.5c0-0.5,0-0.8-0.1-1.1
	c-0.1-0.4-0.3-0.6-0.6-0.8l3.3-0.1c-0.3,0.1-0.5,0.4-0.6,0.7c-0.1,0.3-0.1,0.8-0.1,1.3V34v7.7c0.1,0,0.2,0,0.3,0
	c0.6,0.1,1.1,0.1,1.4,0.1h2.8c0.4,0,0.7,0,1,0c0.3,0,0.5,0,0.7-0.1V34v-0.6c0-0.5,0-0.8-0.1-1.1c-0.1-0.4-0.3-0.6-0.6-0.8l3.3-0.1
	c-0.3,0.1-0.5,0.4-0.6,0.8c-0.1,0.4-0.1,0.8-0.1,1.3V34v6.6c0,0.2,0,0.4,0,0.6c0,0.2,0,0.3,0,0.5h1.1l-0.7,2.4
	c-0.2-0.4-0.4-0.6-0.6-0.8c-0.3-0.2-0.8-0.3-1.4-0.3H110.2z M131.6,40.8v-6.9l-5.6,7.7c-0.4,0.5-0.8,0.9-1.1,1.2
	c-0.4,0.3-0.9,0.6-1.4,0.8v-9.8c0-0.6,0-1.1-0.1-1.3c-0.1-0.4-0.4-0.7-0.8-0.9l3.6,0c-0.4,0.3-0.7,0.6-0.8,1
	c-0.1,0.2-0.1,0.7-0.1,1.3v6.6l5.9-8.1l0.2-0.4c0.1-0.1,0.2-0.3,0.3-0.4h2.5c-0.3,0.2-0.5,0.5-0.6,0.8c-0.1,0.3-0.1,0.6-0.1,1v0.5v7
	v0.6c0,0.4,0,0.7,0.1,0.9c0.1,0.2,0.3,0.5,0.6,0.6l-3.6,0.1c0.4-0.3,0.7-0.6,0.9-1C131.5,41.8,131.6,41.4,131.6,40.8L131.6,40.8z
	 M147.9,37.2c0,1.8-0.6,3.2-1.9,4.4c-1.3,1.2-2.8,1.8-4.5,1.8c-1.8,0-3.3-0.6-4.5-1.7c-1.3-1.2-1.9-2.6-1.9-4.4
	c0-1.7,0.6-3.1,1.9-4.3c1.3-1.2,2.8-1.8,4.7-1.8c1.8,0,3.3,0.6,4.5,1.8C147.3,34.2,147.9,35.6,147.9,37.2L147.9,37.2z M137.1,37.1
	c0,1.3,0.4,2.4,1.2,3.4c0.9,1.1,2,1.6,3.3,1.6c1.3,0,2.4-0.4,3.1-1.3c0.8-0.9,1.2-2,1.2-3.3c0-1.4-0.4-2.5-1.2-3.5
	c-0.8-1-1.9-1.6-3.2-1.6c-1.3,0-2.4,0.4-3.2,1.3C137.5,34.7,137.1,35.8,137.1,37.1z M151.3,37.4v3.2V41c0,0.5,0,0.9,0.1,1.2
	c0.1,0.4,0.3,0.7,0.7,0.8l-3.3,0.1c0.3-0.1,0.5-0.4,0.6-0.8c0.1-0.3,0.1-0.7,0.1-1.2v-0.5V34v-0.5c0-0.5,0-0.8-0.1-1.1
	c-0.1-0.4-0.3-0.6-0.6-0.8l3.3-0.1c-0.3,0.1-0.5,0.4-0.6,0.7c-0.1,0.4-0.2,0.8-0.2,1.3V34v2.2h6.3V34v-0.6c0-0.5,0-0.8-0.1-1.1
	c-0.1-0.4-0.3-0.6-0.6-0.8l3.3-0.1c-0.3,0.1-0.5,0.4-0.6,0.8c-0.1,0.4-0.1,0.8-0.1,1.3V34v6.6V41c0,0.5,0,0.9,0.1,1.2
	c0.1,0.4,0.3,0.7,0.7,0.8l-3.3,0.1c0.3-0.1,0.4-0.3,0.6-0.6c0.1-0.3,0.2-0.7,0.2-1.4v-0.5v-3.2L151.3,37.4L151.3,37.4z M166.4,33
	l-1.7,4.4h3.4L166.4,33z M187.8,43.1h-4.2c0.3-0.2,0.5-0.4,0.6-0.8c0.1-0.3,0.1-0.7,0.1-1.2v-0.5V34v-0.4c0-0.5,0-0.9-0.1-1.2
	c-0.1-0.4-0.3-0.7-0.7-0.8l3.5-0.1c-0.4,0.3-0.7,0.6-0.8,1c-0.1,0.2-0.1,0.7-0.1,1.3v7.9c0.4,0.1,0.8,0.1,1.2,0.1
	c0.8,0,1.3-0.2,1.8-0.5c0.5-0.4,0.7-0.9,0.7-1.7c0-0.8-0.3-1.5-1-2c-0.6-0.5-1.4-0.7-2.2-0.7c0.2-0.1,0.4-0.2,0.6-0.2
	c0.2,0,0.4-0.1,0.7-0.1c1,0,1.9,0.3,2.7,0.8c0.8,0.6,1.2,1.4,1.2,2.5c0,1-0.4,1.7-1.1,2.3C189.9,42.8,188.9,43.1,187.8,43.1z
	 M194.9,37.4v3.2V41c0,0.5,0,0.9,0.1,1.2c0.1,0.4,0.3,0.7,0.7,0.8l-3.3,0.1c0.3-0.1,0.5-0.4,0.6-0.8c0.1-0.3,0.1-0.7,0.1-1.2v-0.5
	V34v-0.5c0-0.5,0-0.8-0.1-1.1c-0.1-0.4-0.3-0.6-0.6-0.8l3.3-0.1c-0.3,0.1-0.5,0.4-0.6,0.7c-0.1,0.4-0.1,0.8-0.1,1.3V34v2.2h6.3V34
	v-0.6c0-0.5,0-0.8-0.1-1.1c-0.1-0.4-0.3-0.6-0.6-0.8l3.3-0.1c-0.3,0.1-0.5,0.4-0.6,0.8c-0.1,0.4-0.1,0.8-0.1,1.3V34v6.6V41
	c0,0.5,0,0.9,0.1,1.2c0.1,0.4,0.3,0.7,0.7,0.8l-3.3,0.1c0.3-0.1,0.4-0.3,0.6-0.6c0.1-0.3,0.2-0.7,0.2-1.4v-0.5v-3.2L194.9,37.4
	L194.9,37.4z M209.3,43.1h-4.2c0.3-0.2,0.5-0.4,0.6-0.8c0.1-0.3,0.1-0.7,0.1-1.2v-0.5V34v-0.4c0-0.5,0-0.9-0.1-1.2
	c-0.1-0.4-0.3-0.7-0.7-0.8l3.5-0.1c-0.4,0.3-0.7,0.6-0.8,1c-0.1,0.2-0.1,0.7-0.1,1.3v7.9c0.4,0.1,0.8,0.1,1.2,0.1
	c0.8,0,1.3-0.2,1.8-0.5c0.5-0.4,0.7-0.9,0.7-1.7c0-0.8-0.3-1.5-1-2S209,37,208.2,37c0.2-0.1,0.4-0.2,0.6-0.2c0.2,0,0.4-0.1,0.7-0.1
	c1,0,1.9,0.3,2.7,0.8c0.8,0.6,1.2,1.4,1.2,2.5c0,1-0.4,1.7-1.1,2.3C211.5,42.8,210.5,43.1,209.3,43.1z M214.7,34v-0.6
	c0-0.5,0-0.8-0.1-1.1c-0.1-0.4-0.3-0.6-0.6-0.8l3.3-0.1c-0.3,0.1-0.5,0.4-0.6,0.7c-0.1,0.4-0.1,0.8-0.1,1.3V34v6.6V41
	c0,0.5,0,0.9,0.1,1.2c0.1,0.4,0.3,0.7,0.7,0.8l-3.3,0.1c0.3-0.1,0.5-0.4,0.6-0.8c0.1-0.3,0.1-0.7,0.1-1.2v-0.5V34L214.7,34z
	 M222.2,28.4c0.2,0.4,0.5,0.6,0.8,0.8c0.4,0.2,0.8,0.2,1.2,0.2c0.4,0,0.8-0.1,1.2-0.2c0.4-0.2,0.6-0.4,0.8-0.7h1.1
	c-0.2,0.7-0.6,1.2-1.2,1.6c-0.6,0.4-1.2,0.6-1.9,0.6c-0.7,0-1.4-0.2-1.9-0.6s-1-0.9-1.2-1.6L222.2,28.4L222.2,28.4z M227.4,40.8
	v-6.9l-5.6,7.7c-0.4,0.5-0.8,0.9-1.1,1.2c-0.4,0.3-0.9,0.6-1.4,0.8v-9.8c0-0.6,0-1.1-0.1-1.3c-0.1-0.4-0.4-0.7-0.8-0.9l3.6,0
	c-0.4,0.3-0.7,0.6-0.8,1c-0.1,0.2-0.1,0.7-0.1,1.3v6.6l5.9-8.1l0.2-0.4c0.1-0.1,0.2-0.3,0.3-0.4h2.5c-0.3,0.2-0.5,0.5-0.6,0.8
	c-0.1,0.3-0.1,0.6-0.1,1v0.5v7v0.6c0,0.4,0,0.7,0.1,0.9c0.1,0.2,0.3,0.5,0.6,0.6l-3.6,0.1c0.4-0.3,0.7-0.6,0.9-1
	C227.3,41.8,227.4,41.4,227.4,40.8L227.4,40.8z M240.5,31.5c1.2,0,2.1,0.3,2.9,0.8c0.7,0.5,1.1,1.3,1.1,2.3c0,1-0.4,1.8-1.1,2.4
	c-0.8,0.6-1.7,0.9-2.7,0.9c-0.3,0-0.5,0-0.7,0c-0.2,0-0.4-0.1-0.6-0.2c0.8,0,1.5-0.2,2.1-0.7c0.7-0.5,1-1.2,1-2
	c0-0.7-0.2-1.3-0.7-1.6c-0.5-0.4-1.1-0.5-1.8-0.5c-0.4,0-0.8,0-1.2,0.1v7.9c0,0.6,0,1,0.1,1.3c0.1,0.4,0.4,0.7,0.8,0.9l-3.5,0.1
	c0.3-0.1,0.5-0.4,0.7-0.8c0.1-0.3,0.1-0.7,0.1-1.2v-0.4V34v-0.4c0-0.5,0-0.9-0.1-1.2c-0.1-0.4-0.3-0.7-0.7-0.8L240.5,31.5
	L240.5,31.5z M247.8,41.6l2.2,0.2c0.1,0,0.2,0,0.4,0c1.1,0,2.1-0.4,2.8-1.1l-0.7,2.3h-7.3c0.3-0.1,0.6-0.4,0.7-0.8
	c0.1-0.3,0.1-0.7,0.1-1.2v-0.4V34v-0.4c0-0.5,0-0.9-0.1-1.2c-0.1-0.4-0.3-0.7-0.7-0.8l5.6-0.1h0.3c0.2,0,0.4,0,0.5-0.1l0.1,2.1
	c-0.3-0.3-0.6-0.5-0.9-0.6c-0.3-0.1-0.7-0.1-1.2-0.1c-0.4,0-0.7,0-1,0c-0.2,0-0.5,0-0.8,0.1v3.3h2.1c0.1,0,0.3,0,0.4,0
	c0.1,0,0.3,0,0.4-0.1l0.1,1.9c-0.2-0.2-0.4-0.4-0.6-0.4c-0.3-0.1-0.6-0.1-1-0.1h-1.3L247.8,41.6L247.8,41.6z M256.9,41.6l2.2,0.2
	c0.1,0,0.2,0,0.4,0c1.1,0,2.1-0.4,2.8-1.1l-0.7,2.3h-7.3c0.3-0.1,0.6-0.4,0.7-0.8c0.1-0.3,0.1-0.7,0.1-1.2v-0.4V34v-0.4
	c0-0.5,0-0.9-0.1-1.2c-0.1-0.4-0.3-0.7-0.7-0.8l5.6-0.1h0.3c0.2,0,0.4,0,0.5-0.1l0.1,2.1c-0.3-0.3-0.6-0.5-0.9-0.6
	c-0.3-0.1-0.7-0.1-1.2-0.1c-0.4,0-0.7,0-1,0c-0.2,0-0.5,0-0.8,0.1v3.3h2.1c0.1,0,0.3,0,0.4,0c0.1,0,0.3,0,0.4-0.1l0.1,1.9
	c-0.1-0.2-0.3-0.4-0.6-0.4c-0.2-0.1-0.6-0.1-1-0.1h-1.3L256.9,41.6L256.9,41.6z M271.6,33.7c-0.5-0.3-1-0.6-1.6-0.7
	c-0.5-0.2-1.1-0.3-1.7-0.3c-1.2,0-2.2,0.4-3,1.2c-0.8,0.8-1.1,1.8-1.1,3.1c0,1.3,0.4,2.5,1.2,3.4c0.9,1,1.9,1.5,3.2,1.5
	c0.6,0,1.2-0.1,1.9-0.3s1.2-0.5,1.8-0.8l-0.8,2c-0.4,0.2-0.8,0.3-1.2,0.4c-0.4,0.1-0.9,0.1-1.4,0.1c-2.1,0-3.7-0.5-4.9-1.6
	c-1.2-1.1-1.8-2.6-1.8-4.5c0-1.8,0.6-3.3,1.7-4.4c1.1-1.1,2.6-1.7,4.4-1.7c0.5,0,1,0,1.5,0.1c0.5,0.1,1.1,0.2,1.6,0.3V33.7z
	 M277.6,40.8v-8h1.6c0.4,0,0.7,0,1,0.2c0.3,0.1,0.5,0.3,0.6,0.6l0.5-2.1c-0.1,0.1-0.2,0.1-0.4,0.1c-0.1,0-0.3,0-0.5,0h-6.9
	c0,0-0.2,0-0.3,0c-0.2,0-0.3,0-0.4-0.1l-0.6,2.1c0.3-0.2,0.6-0.4,0.9-0.5c0.4-0.1,0.7-0.2,1.2-0.2h1.5v7.8v0.5c0,0.5,0,0.9-0.1,1.2
	c-0.1,0.4-0.3,0.7-0.6,0.8l3.5-0.1c-0.4-0.2-0.7-0.6-0.8-0.9C277.6,41.8,277.6,41.4,277.6,40.8L277.6,40.8z M285.9,31.5
	c1.2,0,2.1,0.3,2.9,0.8c0.7,0.5,1.1,1.3,1.1,2.3c0,1-0.4,1.8-1.1,2.4c-0.8,0.6-1.7,0.9-2.7,0.9c-0.3,0-0.5,0-0.7,0
	c-0.2,0-0.4-0.1-0.6-0.2c0.8,0,1.5-0.2,2.1-0.7c0.7-0.5,1-1.2,1-2c0-0.7-0.2-1.3-0.7-1.6c-0.5-0.4-1.1-0.5-1.8-0.5
	c-0.4,0-0.8,0-1.2,0.1v7.9c0,0.6,0,1,0.1,1.3c0.1,0.4,0.4,0.7,0.8,0.9l-3.5,0.1c0.3-0.1,0.5-0.4,0.7-0.8c0.1-0.3,0.1-0.7,0.1-1.2
	v-0.4V34v-0.4c0-0.5,0-0.9-0.1-1.2c-0.1-0.4-0.3-0.7-0.7-0.8L285.9,31.5L285.9,31.5z M77.6,56.4v3.2V60c0,0.5,0,0.9,0.1,1.2
	c0.1,0.4,0.3,0.7,0.7,0.8l-3.3,0.1c0.3-0.1,0.5-0.4,0.6-0.8c0.1-0.3,0.1-0.7,0.1-1.2v-0.5V53v-0.5c0-0.5,0-0.8-0.1-1.1
	c-0.1-0.4-0.3-0.6-0.6-0.8l3.3-0.1c-0.3,0.1-0.5,0.4-0.6,0.7c-0.1,0.4-0.1,0.8-0.1,1.3V53v2.2h6.3V53v-0.6c0-0.5,0-0.8-0.1-1.1
	c-0.1-0.4-0.3-0.6-0.6-0.8l3.3-0.1c-0.3,0.1-0.5,0.4-0.6,0.8c-0.1,0.4-0.1,0.8-0.1,1.3V53v6.6V60c0,0.5,0,0.9,0.1,1.2
	c0.1,0.4,0.3,0.7,0.7,0.8l-3.3,0.1c0.3-0.1,0.4-0.3,0.6-0.6c0.1-0.3,0.2-0.7,0.2-1.4v-0.5v-3.2L77.6,56.4L77.6,56.4z M92.7,52
	L91,56.4h3.4L92.7,52z M112.4,60.6l2.2,0.2c0.1,0,0.2,0,0.4,0c1.1,0,2.1-0.4,2.8-1.1l-0.7,2.3h-7.3c0.3-0.1,0.5-0.4,0.7-0.8
	c0.1-0.3,0.1-0.7,0.1-1.2v-0.4V53v-0.4c0-0.5,0-0.9-0.1-1.2c-0.1-0.4-0.3-0.7-0.7-0.8l5.6-0.1h0.3c0.2,0,0.4,0,0.5-0.1l0.1,2.1
	c-0.3-0.3-0.6-0.5-0.9-0.6c-0.3-0.1-0.7-0.1-1.2-0.1c-0.4,0-0.7,0-1,0c-0.2,0-0.5,0-0.8,0.1v3.3h2.1c0.1,0,0.3,0,0.4,0
	c0.1,0,0.3,0,0.4-0.1l0.1,1.9c-0.2-0.2-0.3-0.4-0.6-0.4c-0.2-0.1-0.6-0.1-1-0.1h-1.3L112.4,60.6L112.4,60.6z M122.5,53
	c-0.1-0.1-0.3-0.4-0.5-0.7c-0.3-0.5-0.5-0.8-0.5-1.1c0-0.3,0.2-0.5,0.5-0.7H119l3.9,5.2l-3.4,4.6c-0.3,0.4-0.6,0.7-0.9,0.9
	c-0.3,0.3-0.7,0.5-1.2,0.8h1.6c0.4,0,0.8-0.1,1.2-0.2c0.4-0.2,0.6-0.3,0.8-0.5l3.8-5.3L122.5,53L122.5,53z M129.1,53
	c0.2-0.3,0.4-0.6,0.6-0.9c0.2-0.4,0.3-0.7,0.3-0.9c0-0.3-0.2-0.5-0.5-0.7l3.1-0.1l-3.9,5.2l3.4,4.6c0.3,0.4,0.6,0.7,0.9,0.9
	s0.7,0.5,1.2,0.7l-1.6,0.1c-0.4,0-0.8-0.1-1.2-0.2c-0.4-0.1-0.6-0.3-0.8-0.5L127,56L129.1,53L129.1,53z M127.5,50.5
	c-0.3,0.1-0.5,0.4-0.6,0.8c-0.1,0.4-0.2,0.8-0.2,1.3V53v6.6V60c0,0.5,0,0.9,0.1,1.2c0.1,0.4,0.3,0.7,0.7,0.8l-3.3,0.1
	c0.3-0.1,0.5-0.4,0.7-0.9c0.1-0.3,0.1-0.7,0.1-1.2v-0.4V53v-0.4c0-0.5,0-0.9-0.1-1.2c-0.1-0.4-0.3-0.7-0.7-0.8L127.5,50.5
	L127.5,50.5z M136.6,56.4h6.3v3.2v0.5c0,0.7-0.1,1.1-0.2,1.4c-0.1,0.3-0.3,0.5-0.6,0.6l3.3-0.1c-0.3-0.1-0.6-0.4-0.7-0.8
	c-0.1-0.2-0.1-0.6-0.1-1.2v-0.4V53v-0.4c0-0.5,0-0.9,0.1-1.3c0.1-0.4,0.3-0.6,0.6-0.8l-3.3,0.1c0.3,0.1,0.5,0.4,0.6,0.8
	c0.1,0.3,0.1,0.6,0.1,1.1V53v2.2h-6.3V53v-0.5c0-0.5,0-0.9,0.1-1.3c0.1-0.4,0.3-0.6,0.6-0.7l-3.3,0.1c0.3,0.1,0.5,0.4,0.6,0.8
	c0.1,0.3,0.1,0.6,0.1,1.1V53v6.6v0.5c0,0.5,0,0.9-0.1,1.2c-0.1,0.4-0.3,0.7-0.6,0.8l3.3-0.1c-0.3-0.1-0.5-0.4-0.7-0.8
	c-0.1-0.3-0.1-0.6-0.1-1.2v-0.4V56.4L136.6,56.4z M151.1,62.1h-4.2c0.3-0.2,0.5-0.4,0.6-0.8c0.1-0.3,0.1-0.7,0.1-1.2v-0.5V53v-0.4
	c0-0.5,0-0.9-0.1-1.2c-0.1-0.4-0.3-0.7-0.7-0.8l3.5-0.1c-0.4,0.3-0.7,0.6-0.8,1c-0.1,0.2-0.1,0.7-0.1,1.3v7.9
	c0.4,0.1,0.8,0.1,1.2,0.1c0.8,0,1.3-0.2,1.8-0.5c0.5-0.4,0.7-0.9,0.7-1.7c0-0.8-0.3-1.5-1-2c-0.6-0.5-1.4-0.7-2.2-0.7
	c0.2-0.1,0.4-0.2,0.6-0.2c0.2,0,0.4-0.1,0.7-0.1c1,0,1.9,0.3,2.7,0.8c0.8,0.6,1.2,1.4,1.2,2.5c0,1-0.4,1.7-1.1,2.3
	C153.2,61.8,152.2,62.1,151.1,62.1L151.1,62.1z M156.4,53v-0.6c0-0.5,0-0.8-0.1-1.1c-0.1-0.4-0.3-0.6-0.6-0.8l3.3-0.1
	c-0.3,0.1-0.5,0.4-0.6,0.7c-0.1,0.4-0.1,0.8-0.1,1.3V53v6.6V60c0,0.5,0,0.9,0.1,1.2c0.1,0.4,0.3,0.7,0.7,0.8l-3.3,0.1
	c0.3-0.1,0.5-0.4,0.6-0.8c0.1-0.3,0.1-0.7,0.1-1.2v-0.5L156.4,53L156.4,53z M162.7,60.3c-0.2,0.2-0.3,0.4-0.3,0.5
	c-0.1,0.2-0.2,0.4-0.2,0.5c0,0.1,0,0.3,0.1,0.4c0.1,0.1,0.3,0.2,0.5,0.3l-3.4,0.1l4.8-6.2l-2.5-3.7c-0.3-0.4-0.6-0.8-0.7-1
	c-0.3-0.3-0.6-0.6-0.9-0.7h2c0.3,0,0.4,0,0.6,0.1c0.1,0.1,0.2,0.2,0.3,0.3l2.5,3.7l1.7-2.4c0.2-0.3,0.3-0.5,0.4-0.7
	c0.1-0.2,0.1-0.3,0.1-0.4c0-0.2-0.1-0.3-0.2-0.4c-0.1-0.1-0.3-0.2-0.5-0.2l3.2-0.1l-4,5.2l2.8,4.2c0.5,0.7,0.8,1.1,0.9,1.3
	c0.4,0.4,0.8,0.8,1.2,0.9h-2c-0.3,0-0.6-0.1-0.8-0.2c-0.1-0.1-0.2-0.2-0.3-0.4l-2.9-4.4L162.7,60.3L162.7,60.3z M178.5,51.9v7.7V60
	c0,0.5,0,0.9,0.1,1.2c0.1,0.4,0.3,0.7,0.7,0.8l-3.3,0.1c0.3-0.1,0.5-0.4,0.6-0.8c0.1-0.3,0.1-0.7,0.1-1.2v-0.5V53v-0.5
	c0-0.5,0-0.8-0.1-1.1c-0.1-0.4-0.3-0.6-0.6-0.8l11.4-0.1c-0.3,0.1-0.5,0.4-0.6,0.8c-0.1,0.4-0.2,0.8-0.2,1.3V53v6.6V60
	c0,0.5,0,0.9,0.1,1.2c0.1,0.4,0.3,0.7,0.7,0.8l-3.3,0.1c0.3-0.1,0.4-0.3,0.6-0.6c0.1-0.3,0.2-0.7,0.2-1.4v-0.5v-7.7
	c-0.3,0-0.6-0.1-0.8-0.1c-0.3,0-0.6,0-1,0h-2.7c-0.3,0-0.6,0-0.9,0C179.1,51.8,178.8,51.8,178.5,51.9L178.5,51.9z M201.1,56.2
	c0,1.8-0.6,3.2-1.9,4.4c-1.3,1.2-2.8,1.8-4.5,1.8c-1.8,0-3.3-0.6-4.5-1.7c-1.3-1.2-1.9-2.6-1.9-4.4c0-1.7,0.6-3.1,1.9-4.3
	c1.3-1.2,2.8-1.8,4.7-1.8c1.8,0,3.3,0.6,4.5,1.8C200.6,53.1,201.1,54.5,201.1,56.2L201.1,56.2z M190.4,56.1c0,1.3,0.4,2.4,1.2,3.4
	c0.9,1.1,2,1.6,3.3,1.6c1.3,0,2.4-0.4,3.1-1.3c0.8-0.9,1.2-2,1.2-3.3c0-1.4-0.4-2.5-1.2-3.5c-0.8-1-1.9-1.6-3.2-1.6
	c-1.3,0-2.4,0.4-3.2,1.3S190.4,54.7,190.4,56.1L190.4,56.1z"/>
<path class="st1" d="M52.6,56.5l0-32.2H16.8v32.2c0,2.3-0.1,4.3,0.7,5.8c0.2,0.3,0.3,0.5,0.6,0.8c0.7,0.8,1.8,1.3,3.5,1.6
	c1.2,0.2,2.6,0.1,3.8,0.1c1.3,0,2.6-0.1,4,0.1c2.1,0.3,3.4,1,5.1,2.2c0.1,0.1,0.2,0.1,0.2,0.2c2.8-2,4.7-2.7,8.3-2.5
	c1.6,0.1,3,0.1,4.7-0.1c1.8-0.2,2.9-0.8,3.6-1.5c0.3-0.3,0.5-0.6,0.6-0.9C52.7,60.8,52.6,58.8,52.6,56.5z M42.9,50.5
	c0-0.2,0-5.2,0-6.1c0-2.6,0-4.2,0-4.8c0-0.5,0-0.9-0.1-0.9c-0.1-0.1-0.3-0.1-0.8-0.2c-0.4,0-0.7,0.1-0.7,0.1c0,0-0.1,0.1-0.1,0.1
	c0,0.1-0.1,0.4-0.1,1.1c0,1,0,1.7,0,2.3l0,8.7c0,0.7,0,1.1,0,1.2c0,0.1,0.1,0.2,0.1,0.2c0.1,0,0.3,0.1,0.7,0.1v-0.7
	C42.4,51.3,42.8,50.9,42.9,50.5L42.9,50.5z M30.4,42.1C30.4,42.1,30.4,42.1,30.4,42.1c0,0,0.1,0,0.1,0c0.3,0,0.6-0.2,0.8-0.5
	c0.2-0.3,0.3-0.7,0.3-1.3c0-0.6-0.1-1.1-0.3-1.4c-0.2-0.2-0.4-0.3-0.7-0.4c-0.1,0-0.1,0-0.2,0C30.4,40,30.4,41.2,30.4,42.1
	L30.4,42.1z M18.9,46.3c0.4,0,0.7-0.1,0.7-0.1c0.1,0,0.1-0.2,0.1-0.3c0-0.2,0-0.6,0-1.6l0-3.6c0-1.2,0-1.9,0-2c0-0.1,0-0.1-0.1-0.2
	c-0.1-0.1-0.3-0.1-0.8-0.1v-0.5c0.3,0,0.5,0,0.7,0v0c0.4,0,0.8,0,1.1,0c0.5,0,1,0,1.4,0v0c0.2,0,0.5,0,0.7,0v0.5
	c-0.4,0-0.6,0.1-0.7,0.1c0,0-0.1,0.1-0.1,0.1c0,0.1-0.1,0.3-0.1,0.8c0,0.6,0,1.3,0,1.9v0.5c0.3,0,0.7,0,1.2,0c0.5,0,0.9,0,1.2,0
	c0-1.4,0-2.4,0-2.8c0-0.2,0-0.4-0.1-0.5c-0.1-0.1-0.3-0.1-0.8-0.2v-0.5c0.3,0,0.5,0,0.7,0v0c0.5,0,0.9,0,1.2,0c0.4,0,0.9,0,1.3,0v0
	c0.2,0,0.5,0,0.7,0v0.5c-0.4,0-0.7,0.1-0.7,0.1c0,0-0.1,0.1-0.1,0.1c0,0.1-0.1,0.5-0.1,1.1c0,1,0,1.7,0,2.3l0,7.4c0,0.7,0,1.1,0,1.2
	c0.1,0.3,0.7,0.8,0.9,0.9v0.8l-0.7-0.5v0.5L23.4,50v-0.5c0.4,0,0.7-0.1,0.7-0.1s0.1-0.2,0.1-0.5c0-0.5,0-4.5,0-6.1
	c-0.2,0-0.3,0-0.5,0c-0.7,0-1.3,0-1.9,0v0.4c0,1.1,0,3.3,0,3.9c0,0.7,0.4,1,0.9,1.3v0.8l-0.7-0.5v0.5l-3.3-2.3L18.9,46.3L18.9,46.3z
	 M28.2,39.6c0-0.6-0.1-0.9-0.1-1c0-0.1-0.2-0.1-0.4-0.1l-0.3,0v-0.5l0.6,0c0.1,0,0.1,0,0.2,0v0l0.6,0c0.2,0,0.4,0,0.6,0
	c0.2,0,0.5,0,0.9,0c0.3,0,0.6,0,0.7,0c0.1,0,0.1,0,0.1,0c0.2,0,0.4,0,0.6,0c0.6,0,1,0.1,1.3,0.2c0.3,0.1,0.5,0.4,0.6,0.7
	c0.1,0.3,0.2,0.7,0.2,1.1c0,0.8-0.2,1.5-0.7,2c-0.4,0.5-1,0.8-1.7,0.8c-0.1,0-0.2,0-0.3,0c0,0-0.1,0-0.2,0c-0.1,0-0.2,0.1-0.3,0.1
	c-0.1,0-0.2,0-0.3,0c0,0-0.1,0-0.1,0c0,2.1,0,8.6,0,10.1c0,0.9,0.3,1,1,1.4v0.8l-0.7-0.5v0.5l-3.3-2.3v-0.5c0.4,0,0.6-0.1,0.7-0.1
	c0,0,0.1-0.1,0.1-0.1c0-0.1,0.1-0.6,0.1-1.4c0-0.8,0-7.2,0-8C28.3,41.2,28.3,40.2,28.2,39.6L28.2,39.6z M37.5,37.9v0.5
	c-0.4,0-0.6,0.1-0.7,0.1c0,0-0.1,0.1-0.1,0.1c0,0.1-0.1,0.3-0.1,0.8c0,0.6,0,1.3,0,1.9v0.5c0.3,0,0.7,0,1.2,0c0.5,0,0.9,0,1.2,0
	c0-1.4,0-2.4,0-2.8c0-0.2,0-0.4-0.1-0.5c-0.1-0.1-0.3-0.1-0.8-0.2v-0.5c0.3,0,0.5,0,0.7,0v0c0.5,0,0.9,0,1.2,0c0.4,0,0.9,0,1.3,0v0
	c0.2,0,0.4,0,0.7,0c0,0,0,0,0,0c0,0,0,0,0,0c0.3,0,0.5,0,0.7,0v0c0.8,0,1.4,0,1.8,0H48c0.4,0,1,0,1.8,0v0c0.2,0,0.4,0,0.7,0v0.5
	c-0.4,0-0.7,0.1-0.8,0.2c-0.1,0.1-0.1,1.1-0.1,3.1c0,0.1,0,0.6,0,1.5l0,1.9c0,0.4,0,0.7,0,0.8c0,0.1,0,0.2,0.1,0.2
	c0,0,0.1,0.1,0.1,0.1c0.1,0,0.3,0,0.6,0.1v0.5l-3.2,2.3v-0.5l-0.7,0.5v-0.8c0.7-0.7,0.8-1,0.9-2.1c0-0.6,0.1-3.1,0-5.3l0-2.3l-0.6,0
	c-0.1,0-0.1,0-0.2,0H46l-0.8,0.1c0,0.2,0,0.5,0,0.9c0,0.8,0,1.4,0,1.9c0,2.2,0,6.4,0,7c0,0.5,0.1,0.8,0.1,0.9
	c0.1,0.1,0.3,0.1,0.8,0.2v0.5l-3.3,2.3v-0.5l-0.7,0.5v0.5L38.8,55v-0.5L38.1,55v-0.8c0.4-0.4,0.8-1,0.9-1.6c0-0.5,0-8.4,0-10
	c-0.2,0-0.3,0-0.5,0c-0.7,0-1.3,0-1.9,0v0.4c0,1.1,0,10.8,0,11.4c0,0.4,0.1,0.6,0.1,0.7c0.1,0.1,0.3,0.1,0.8,0.2v0.5l-2.4,1.7
	l-0.4-0.2l-0.4,0.2l-0.8-0.6c0.3-0.2,0.8-0.5,0.9-0.9c0-0.2,0-10.8,0-11.8l0-3.6c0-1.2,0-1.9,0-2c0-0.1,0-0.1-0.1-0.2
	c-0.1-0.1-0.3-0.1-0.8-0.1v-0.5c0.3,0,0.5,0,0.7,0v0c0.4,0,0.8,0,1.1,0c0.5,0,1,0,1.4,0v0C37.1,37.9,37.3,37.9,37.5,37.9L37.5,37.9z
	 M33.6,58.8l-14-1.1H32L33.6,58.8z M28.6,55.3l1.2,0.8l-10.2-0.8H28.6L28.6,55.3z M35.1,63.6l-15.5-1.2h31L35.1,63.6L35.1,63.6z
	 M35.1,61.2L19.6,60h31L35.1,61.2L35.1,61.2z M35.8,58.8l1.7-1.2h13.1L35.8,58.8z M39.6,56.2l1.3-0.9h9.7L39.6,56.2z M35.1,35.3
	L19.6,34h31L35.1,35.3L35.1,35.3z M35.1,32.9l-15.5-1.2h31L35.1,32.9L35.1,32.9z M35.1,30.6l-15.5-1.2h31L35.1,30.6L35.1,30.6z
	 M35.1,28.2L19.6,27h31L35.1,28.2L35.1,28.2z"/>
</svg>
